<?xml version="1.0" encoding="UTF-8" standalone="no"?>
<!-- Created with Inkscape (http://www.inkscape.org/) -->

<svg
   xmlns:dc="http://purl.org/dc/elements/1.1/"
   xmlns:cc="http://creativecommons.org/ns#"
   xmlns:rdf="http://www.w3.org/1999/02/22-rdf-syntax-ns#"
   xmlns:svg="http://www.w3.org/2000/svg"
   xmlns="http://www.w3.org/2000/svg"
   xmlns:sodipodi="http://sodipodi.sourceforge.net/DTD/sodipodi-0.dtd"
   xmlns:inkscape="http://www.inkscape.org/namespaces/inkscape"
   width="744.09448"
   height="1052.3622"
   id="svg2"
   version="1.1"
   inkscape:version="0.48.4 r9939"
   sodipodi:docname="hand.svg">
  <defs
     id="defs4">
    <filter
       inkscape:collect="always"
       id="filter4076"
       color-interpolation-filters="sRGB">
      <feGaussianBlur
         inkscape:collect="always"
         stdDeviation="12.012016"
         id="feGaussianBlur4078" />
    </filter>
    <filter
       color-interpolation-filters="sRGB"
       inkscape:collect="always"
       id="filter4076-9">
      <feGaussianBlur
         inkscape:collect="always"
         stdDeviation="12.012016"
         id="feGaussianBlur4078-3" />
    </filter>
  </defs>
  <sodipodi:namedview
     id="base"
     pagecolor="#ffffff"
     bordercolor="#666666"
     borderopacity="1.0"
     inkscape:pageopacity="0.0"
     inkscape:pageshadow="2"
     inkscape:zoom="0.175"
     inkscape:cx="-682.37306"
     inkscape:cy="677.3421"
     inkscape:document-units="px"
     inkscape:current-layer="layer2"
     showgrid="false"
     inkscape:window-width="1366"
     inkscape:window-height="705"
     inkscape:window-x="-8"
     inkscape:window-y="-8"
     inkscape:window-maximized="1" />
  <metadata
     id="metadata7">
    <rdf:RDF>
      <cc:Work
         rdf:about="">
        <dc:format>image/svg+xml</dc:format>
        <dc:type
           rdf:resource="http://purl.org/dc/dcmitype/StillImage" />
        <dc:title />
      </cc:Work>
    </rdf:RDF>
  </metadata>
  <g
     inkscape:groupmode="layer"
     id="layer3"
     inkscape:label="kolor"
     style="display:inline">
    <path
       style="fill:#fecd81;fill-opacity:1;stroke:none"
       d="m 285.35714,-742.10211 -14.28571,9.28572 -11.25,16.07143 -1.96429,9.10714 1.07143,20 3.21429,20.71428 1.25,33.75 1.78571,42.85715 8.03572,42.67857 11.42857,40.89286 -3.03572,6.42857 -25.35714,46.25 -9.46429,40.89286 0.71429,17.5 8.92857,32.85714 13.21429,31.60714 7.14285,13.92857 17.32143,24.82143 14.46429,13.57143 12.14286,12.5 10.53571,22.14286 5.35714,14.64285 6.25,8.75 78.39286,58.03572 130.71429,-108.57143 2.5,-66.60714 -4.28572,-0.35715 -2.14285,-30.89285 -3.39286,-79.64286 -6.07143,-41.78571 -8.21429,-26.42858 -18.03571,-25.35714 -22.14286,-21.07143 -6.96428,0.17857 -9.82143,3.39286 -6.78572,5.71429 -20.17857,-18.03572 -17.67857,-12.14286 -12.85714,1.25 -10.53572,11.60715 -4.46428,-6.60715 -11.07143,-11.60714 -9.82143,-5.17857 -8.03571,0.35714 -12.85715,6.07143 -13.75,11.78572 -2.85714,-18.92858 -5.53571,-33.92857 -3.21429,-38.75 1.96429,-15.53571 3.21428,-22.5 -1.25,-17.5 -4.46428,-10 -10,-8.21429 -24.28572,-3.39285 z"
       id="path3844"
       inkscape:connector-curvature="0"
       inkscape:export-filename="F:\-JAREK-\1-gra logiczna\zadanie 11\ręka.png"
       inkscape:export-xdpi="90"
       inkscape:export-ydpi="90" />
    <path
       style="fill:#d07f33;fill-opacity:1;stroke:none"
       d="m 286.12571,-741.4162 17.17259,-4.79823 17.93021,3.03046 9.34391,6.06092 7.07107,10.85914 1.76777,18.18274 -3.78808,26.26397 -1.51523,9.84899 4.54569,51.26524 5.3033,36.87057 3.27775,6.08013 8.91805,-7.1617 -1.6349,14.92621 1.28677,9.04908 14.50078,39.9852 7.03675,6.83127 11.66466,-0.55244 -2.80856,5.01306 -9.44208,6.53725 -10.74357,0.35488 -6.2274,19.21363 -5.13836,4.67611 -5.63913,0.60826 0.83134,-13.43205 -1.33641,-14.09461 -2.7187,-12.91574 -10.16075,-5.51955 -11.11167,0.50508 5.3033,-7.82868 10.6066,-6.81853 0.25254,-14.14214 -11.23795,-44.69925 -1.05539,-11.22119 -4.62671,-8.09798 -6.31346,-2.14657 -12.91427,-0.28435 -11.83447,3.31481 5.42956,-8.2075 5.36268,-3.67954 8.15629,-0.52178 8.98758,-0.46886 -0.66199,-12.62867 1.01015,-13.13198 0.50508,-16.92005 -2.27285,-8.33377 -6.81853,5.55584 -11.86929,-0.25254 -7.82868,-5.3033 10.35406,2.27285 9.84899,-4.29315 8.5863,-14.14214 -0.25254,-16.16244 -2.0203,-13.38452 -3.283,-6.31345 -13.38452,-6.566 -13.8896,0.75762 -18.94036,6.81852 z"
       id="path3846"
       inkscape:connector-curvature="0"
       sodipodi:nodetypes="cccccccccccccccccccccccccccccccccccccccccccccccccccccccccc"
       inkscape:export-filename="F:\-JAREK-\1-gra logiczna\zadanie 11\ręka.png"
       inkscape:export-xdpi="90"
       inkscape:export-ydpi="90" />
    <path
       style="fill:#ffccaa;fill-opacity:1;stroke:none"
       d="m 278.83929,-713.26282 4.10714,-5.08929 8.21429,-6.07143 9.375,-2.41071 11.42857,0.26786 4.28571,2.14285 3.30357,3.83929 2.05357,6.42857 c 0,0 -0.35714,17.76786 -0.53571,18.21429 -0.17857,0.44643 -3.75,9.19643 -3.75,9.19643 l -5.625,6.51785 -7.85714,2.41072 -6.69643,-1.25 -5.53572,-2.85715 -7.14285,-8.125 -5.625,-14.375 -0.625,-8.66071 z"
       id="path3848"
       inkscape:connector-curvature="0"
       inkscape:export-filename="F:\-JAREK-\1-gra logiczna\zadanie 11\ręka.png"
       inkscape:export-xdpi="90"
       inkscape:export-ydpi="90" />
    <path
       style="fill:#d07f33;fill-opacity:1;stroke:none"
       d="m 371.25,-593.17354 9.61438,3.49876 6.09991,8.28696 4.64285,24.64285 10.53572,28.03572 -5,5.71428 -3.39286,6.60715 2.85714,-0.89286 14.64286,-1.25 8.75,1.07143 9.46429,7.32143 -1.96429,-13.92857 -5,-21.07143 -10.17857,-26.07143 0.53571,-5 8.39286,-7.67857 -13.39286,7.5 -4.28571,2.5 -11.96429,-14.82143 -7.85808,-5.90543 -10.3562,-0.34457 z"
       id="path3850"
       inkscape:connector-curvature="0"
       sodipodi:nodetypes="cccccccccccccccccccccc"
       inkscape:export-filename="F:\-JAREK-\1-gra logiczna\zadanie 11\ręka.png"
       inkscape:export-xdpi="90"
       inkscape:export-ydpi="90" />
    <path
       style="fill:#d07f33;fill-opacity:1;stroke:none"
       d="m 455.07372,-517.28861 7.07107,-1.76776 7.20631,-1.61983 -1.09309,-7.04569 -9.14368,-14.69426 -23.99112,-27.90546 -9.97526,-8.96511 -8.9651,-1.89403 0.75761,-2.52539 10.60661,-0.75761 12.75317,6.81853 17.29886,13.8896 9.21765,9.09137 2.52538,-2.27284 9.47018,-5.3033 4.41941,-0.63135 -6.69226,6.69226 2.39912,11.61675 5.05076,11.61676 3.28299,12.62165 0.87908,5.60378 -1.27646,2.28228 -3.01297,-1.1347 -2.9031,0.95631 -4.54569,1.38896 -5.93464,-1.38896 -3.53554,-4.16688 -4.54568,-1.76777 z"
       id="path3852"
       inkscape:connector-curvature="0"
       sodipodi:nodetypes="ccccccccccccccccccccccccccccc"
       inkscape:export-filename="F:\-JAREK-\1-gra logiczna\zadanie 11\ręka.png"
       inkscape:export-xdpi="90"
       inkscape:export-ydpi="90" />
    <path
       style="fill:#d07f33;fill-opacity:1;stroke:none"
       d="m 481.78572,-563.17354 5.71428,3.39286 7.14286,8.21429 6.42857,14.46428 1.07143,10.35715 4.64286,7.5 -4.46429,1.42857 -3.21429,5.71428 5.35715,-1.42857 7.14285,2.85715 6.45384,-0.96859 4.04227,2.94185 -0.27034,5.43666 4.96164,20.19392 4.29315,43.43656 -0.50508,48.48733 -6.31345,43.94163 -13.63706,37.88072 -24.24366,32.82996 -35.86041,26.26396 -33.84011,12.62691 -38.79827,11.02911 -34.94287,5.13334 34.80083,1.06485 48.03168,-10.15623 27.77919,-7.07107 c 0,0 47.98225,-28.28427 50.00255,-29.29442 2.02031,-1.01015 27.27412,-26.26397 27.27412,-26.26397 l 16.16244,-23.73858 3.53554,-22.22336 -3.53554,-72.22591 -4.54568,-66.67006 -10.6066,-35.35534 -13.13199,-19.69798 -24.74874,-28.28427 z"
       id="path3854"
       inkscape:connector-curvature="0"
       sodipodi:nodetypes="ccccccccccccccccccccccccccsccccccccc"
       inkscape:export-filename="F:\-JAREK-\1-gra logiczna\zadanie 11\ręka.png"
       inkscape:export-xdpi="90"
       inkscape:export-ydpi="90" />
    <path
       style="fill:#d07f33;fill-opacity:1;stroke:none"
       d="m 288.90363,-302.25238 24.24366,15.65737 8.35668,1.48812 7.80576,1.03725 2.27284,6.81854 0,12.12182 11.47788,38.94486 7.15774,4.71001 -11.56455,-3.5013 -21.46574,-47.47717 -15.65737,-11.61676 -11.61675,-14.64721 z"
       id="path3856"
       inkscape:connector-curvature="0"
       sodipodi:nodetypes="ccccccccccccc"
       inkscape:export-filename="F:\-JAREK-\1-gra logiczna\zadanie 11\ręka.png"
       inkscape:export-xdpi="90"
       inkscape:export-ydpi="90" />
    <path
       style="fill:#ffe6d5;stroke:none"
       d="m 300.71429,-724.51282 -10.17857,2.41071 -6.875,3.66072 -4.46429,4.55357 -0.98214,3.21428 0.98214,6.875 4.28571,11.78572 5.80358,8.48214 7.23214,4.46429 11.51786,-0.17857 6.33928,-3.83929 -4.82143,-41.33929 -1.60714,0.0893 3.39286,37.58929 -2.41072,1.60714 -3.39285,-34.46429 -1.07143,0.80357 1.78571,33.21429 -4.28571,-13.92857 -1.78572,-20 z"
       id="path3858"
       inkscape:connector-curvature="0"
       inkscape:export-filename="F:\-JAREK-\1-gra logiczna\zadanie 11\ręka.png"
       inkscape:export-xdpi="90"
       inkscape:export-ydpi="90" />
    <path
       style="fill:#ffd99f;fill-opacity:1;stroke:none"
       d="m 268.44804,-720.45554 -3.09444,14.07957 -1.19871,7.63871 3.53553,14.64722 6.31346,30.05203 -1.01015,31.56727 -1.76777,13.13198 2.52538,15.9099 5.55584,39.90103 9.34391,36.61803 8.83883,37.12311 5.30331,7.07107 -2.77792,-18.43529 5.3033,-17.17259 7.3236,-12.37437 -4.54568,2.77792 -6.81853,9.09137 -3.283,-4.54568 -10.6066,-37.37565 -5.55584,-41.92133 5.05076,-16.92005 1.76777,-5.3033 -3.53553,-4.54569 -4.54569,-8.5863 -1.76777,-26.5165 -5.80838,-30.55712 -3.18978,-13.65022 0.15933,-7.81552 2.27284,-13.8896 3.78807,-7.3236 -3.03045,1.01015 z"
       id="path3870"
       inkscape:connector-curvature="0"
       sodipodi:nodetypes="cccccccccccccccccccccccccccccccc"
       inkscape:export-filename="F:\-JAREK-\1-gra logiczna\zadanie 11\ręka.png"
       inkscape:export-xdpi="90"
       inkscape:export-ydpi="90" />
    <path
       style="fill:#ffd99f;fill-opacity:1;stroke:none"
       d="m 365.92776,-587.1154 -6.06092,3.283 -2.27284,7.57614 2.52538,12.87944 18.18275,42.67895 4.79822,3.78807 2.02031,-2.52538 -4.79823,-2.52538 -17.17259,-45.20433 0,-11.86929 z"
       id="path3872"
       inkscape:connector-curvature="0"
       inkscape:export-filename="F:\-JAREK-\1-gra logiczna\zadanie 11\ręka.png"
       inkscape:export-xdpi="90"
       inkscape:export-ydpi="90" />
    <path
       style="fill:#ffd99f;fill-opacity:1;stroke:none"
       d="m 293.70185,-464.12933 -9.09137,14.89975 -5.55584,22.72843 7.82868,38.89088 12.12183,23.99112 23.73859,39.14341 6.81853,23.99112 -4.79823,-32.07234 -19.44543,-50.25509 -15.40483,-33.84011 2.27284,-21.46574 z"
       id="path3874"
       inkscape:connector-curvature="0"
       inkscape:export-filename="F:\-JAREK-\1-gra logiczna\zadanie 11\ręka.png"
       inkscape:export-xdpi="90"
       inkscape:export-ydpi="90" />
    <path
       style="fill:#aaccff;stroke:none"
       d="m 334.61303,-230.91036 5.80838,8.71257 10.22779,1.51523 c 0,0 32.32488,-1.51523 33.0825,-1.38896 0.75761,0.12626 62.75573,-13.51079 62.75573,-13.51079 l 26.01142,-11.36422 25.12755,-16.41498 26.64277,-22.98097 16.66752,-20.07678 9.09137,-26.64278 0.88389,-4.92449 4.41941,-0.25254 10.73287,4.67196 22.34963,31.18846 16.03617,22.72843 52.15711,87.0124 0.89286,4.10714 -4.46428,12.85715 -12.85715,29.82142 -13.92857,16.25 -24.28571,21.78572 -26.42857,18.392856 -30,16.428571 -25.53572,7.321429 -25.35714,3.035714 -37.32143,1.964286 -44.28571,-0.714286 -40,-4.464285 -26.78572,-5.178572 -8.92857,-7.678571 -4.28572,-29.642862 -6.42857,-53.39285 -0.35714,-44.28572 5.71429,-20.89285 z"
       id="path3876"
       inkscape:connector-curvature="0"
       inkscape:export-filename="F:\-JAREK-\1-gra logiczna\zadanie 11\ręka.png"
       inkscape:export-xdpi="90"
       inkscape:export-ydpi="90" />
    <path
       style="fill:#5488d6;fill-opacity:1;stroke:none"
       d="m 339.41126,-81.028974 c 0,0 46.45021,10.303437 72.73098,11.111678 26.28077,0.808241 59.79695,-1.829696 83.84266,-7.576144 24.04571,-5.746448 43.52625,-13.952064 59.599,-23.73858 16.07275,-9.78652 28.36881,-20.02005 36.81981,-31.95723 8.451,-11.93717 12.7859,-21.31547 14.32529,-36.27485 1.5394,-14.95938 -3.96502,-33.97299 -8.71869,-50.48188 -4.75367,-16.50888 -13.4432,-35.94902 -19.69798,-47.96121 -6.25478,-12.01219 -8.67721,-23.21713 -15.88144,-24.75309 -7.20423,-1.53597 -6.23049,3.39844 -12.36693,8.1066 -6.13644,4.70815 -13.53451,13.94606 -23.59065,21.05475 -10.05615,7.10869 -23.31244,13.60945 -37.0544,20.34047 -13.74196,6.73102 -28.56399,14.41401 -45.45687,19.69798 -16.89288,5.28397 -32.57742,4.29315 -32.57742,4.29315 0,0 16.93342,-4.92783 33.33504,-10.85915 16.40162,-5.93132 24.52731,-9.48911 37.62818,-16.92005 13.10087,-7.43094 26.49482,-16.23405 37.12311,-26.5165 10.62829,-10.28245 21.05612,-18.92269 26.26396,-27.77919 5.20784,-8.8565 7.26338,-18.85486 8.33377,-24.74875 1.07039,-5.89388 0.50507,-12.6269 0.50507,-12.6269 0,0 6.37513,-0.66063 13.13198,5.05076 6.75685,5.71139 14.93866,19.83849 23.73859,33.84011 8.79993,14.00162 19.50798,36.32805 28.28427,50.50763 8.77629,14.17958 17.70717,25.37008 23.73858,34.85026 6.03141,9.48018 11.29038,16.74394 12.87945,21.71828 1.58907,4.97434 1.38211,-0.32646 0.50507,6.06091 -0.87704,6.38737 -4.76594,18.93143 -11.36421,30.55712 -6.59827,11.62569 -18.60523,26.37505 -29.7995,37.12311 -11.19427,10.74806 -25.39131,19.685692 -36.61803,27.021576 -11.22672,7.335884 -20.14665,13.083138 -30.30458,17.425131 -10.15793,4.341993 -19.82806,6.769605 -30.05204,8.838835 -10.22398,2.06923 -20.66186,2.650811 -31.06219,3.535534 -10.40033,0.884723 -19.81316,1.636371 -31.31473,1.767767 -11.50157,0.131396 -23.89933,-0.412512 -37.62818,-1.262691 -13.72885,-0.850179 -33.64082,-2.578932 -44.69925,-4.04061 -11.05843,-1.461678 -15.92215,-1.563137 -21.71828,-3.788072 -5.79613,-2.224935 -12.87944,-8.081221 -12.87944,-8.081221 z"
       id="path3878"
       inkscape:connector-curvature="0"
       sodipodi:nodetypes="czzzzzzzzzzzzczzzzzczzzzzzzzzzzzzzzzcc"
       inkscape:export-filename="F:\-JAREK-\1-gra logiczna\zadanie 11\ręka.png"
       inkscape:export-xdpi="90"
       inkscape:export-ydpi="90" />
    <path
       style="fill:#d5e5ff;stroke:none"
       d="m 334.86557,-229.5214 6.81853,8.01809 12.81631,1.89403 18.17816,-0.88568 23.92857,-2.85715 -30.35714,8.57143 -20.35714,8.21429 -1.60714,35.53571 3.71183,36.46362 5.55584,31.31473 15.15229,19.192898 16.16244,13.63706 -47.47717,-8.081221 -9.59645,-60.104077 -0.50508,-58.08377 3.8713,-30.94638 z"
       id="path3880"
       inkscape:connector-curvature="0"
       inkscape:export-filename="F:\-JAREK-\1-gra logiczna\zadanie 11\ręka.png"
       inkscape:export-xdpi="90"
       inkscape:export-ydpi="90" />
  </g>
  <g
     inkscape:groupmode="layer"
     id="layer2"
     inkscape:label="linie"
     style="display:inline">
    <path
       style="opacity:0.71724141;fill:#214478;fill-opacity:1;stroke:none;display:inline;filter:url(#filter4076)"
       d="m 1312.6065,-1016.8324 c -2.9741,0.5184 -5.7062,1.2189 -7.8959,2.0491 -20.2807,7.6909 -36.7913,26.74409 -38.1189,44.00382 -0.4817,6.26146 3.2059,26.89729 5.9579,33.27893 0.9505,2.2042 4.0907,21.12859 7.1993,43.36103 4.5276,32.38106 6.2501,41.95621 9.6123,53.44259 5.4087,18.47671 17.55,51.84518 24.2089,66.58744 l 5.3147,11.82212 -7.3765,13.56373 c -8.5125,15.63412 -18.6575,42.59544 -21.3588,56.81727 -3.855,20.29544 -0.6587,47.40619 7.761,65.94585 13.8294,30.4532 30.7573,54.96477 50.9344,73.75909 7.6713,7.14559 15.9966,14.00404 18.4981,15.24147 9.5856,4.74137 16.566,9.67281 21.7084,15.3569 5.6226,6.21491 17.5326,24.67135 17.8842,27.70039 0.1135,0.97896 -0.7891,2.6457 -2.0233,3.68328 -5.461,4.59078 -5.4111,42.69477 0.094,68.44815 8.864,41.46201 10.6458,49.25081 13.0265,56.53896 1.429,4.37414 4.2436,13.10349 6.23,19.40272 1.9864,6.29921 4.4978,12.43439 5.5933,13.61055 2.5552,2.74303 16.4174,6.12253 26.7553,6.51116 4.4202,0.16619 16.3766,-0.37695 26.5716,-1.19249 10.1948,-0.81551 25.3907,-2.00219 33.7569,-2.63063 33.1906,-2.49306 91.7167,-14.12811 117.1693,-23.31524 32.4983,-11.73022 55.8528,-27.71867 93.2277,-63.72876 10.4148,-10.03452 28.116,-30.78078 31.2953,-36.69434 8.6785,-16.14198 11.1195,-22.23305 13.5749,-33.91008 1.4464,-6.8777 2.8103,-15.41703 3.0518,-18.99768 0.4345,-6.43963 0.3836,-6.6195 -5.2596,-14.71545 -3.1381,-4.50162 -13.217,-16.20005 -22.3746,-25.99458 -9.1576,-9.79452 -21.5887,-23.82607 -27.6636,-31.16797 -11.7652,-14.21909 -35.9037,-40.7162 -44.615,-48.99657 -8.0735,-7.67436 -18.8444,-15.88827 -22.1312,-16.85889 -1.6268,-0.4805 -5.3156,-0.77314 -8.1782,-0.68896 l -5.2032,0.15416 -1.8037,-8.80755 c -0.9922,-4.82704 -4.517,-28.37591 -7.8494,-52.32997 -6.3556,-45.6831 -9.3475,-60.0891 -16.7629,-81.08054 -9.1665,-25.94945 -17.4402,-38.48019 -38.3175,-58.08549 -17.441,-16.3787 -26.6676,-21.09669 -37.7211,-19.28341 -6.32,1.0366 -13.6596,5.34936 -16.4267,9.64562 -1.0053,1.56081 -2.0682,2.87152 -2.3604,2.9207 -0.2924,0.0491 -5.2152,-3.15413 -10.9165,-7.14362 -11.2429,-7.86738 -23.8364,-14.36327 -30.491,-15.74753 -11.196,-2.32884 -23.4394,3.50362 -28.8107,13.7281 l -1.5168,2.84423 -2.9499,-3.99371 c -4.0179,-5.44779 -10.8773,-10.47778 -17.3947,-12.77248 -11.7953,-4.15279 -26.5714,1.74277 -38.0889,15.19061 -6.9266,8.0876 -5.4958,9.57349 -12.2386,-12.72206 -5.936,-19.62751 -12.1219,-43.74872 -15.8058,-61.5118 -2.793,-13.46831 -2.8808,-14.67882 -1.4297,-21.19341 2.6084,-11.70849 2.8074,-19.61558 0.8142,-31.23915 -2.9038,-16.93381 -9.5727,-26.30511 -21.8443,-30.60661 -5.2559,-1.8424 -16.3896,-1.754 -25.3124,-0.1991 z m -0.079,273.21398 -9.278,21.35599 c 2.6277,-6.82831 6.1054,-14.70848 9.278,-21.35599 z m -17.7166,48.10946 -2.4396,18.7636 c 0.2646,-6.38769 1.0436,-12.41611 2.4396,-18.7636 z"
       id="path3844-7-2"
       inkscape:connector-curvature="0" />
    <path
       style="fill:#000000;display:inline"
       d="m -79.357133,18.2597 c -7.425,-0.7427 -20.906977,-2.0521 -29.959947,-2.9097 -9.05297,-0.8577 -19.62797,-2.2758 -23.5,-3.1515 -8.9951,-2.0343 -20.97113,-7.5335 -22.9157,-10.5227 -0.82783,-1.2725 -2.1871,-6.3636 -3.02062,-11.3136 -0.83351,-4.95 -2.39896,-13.725 -3.47878,-19.5 -1.07982,-5.775 -2.66632,-18.6 -3.52557,-28.5 -0.85924,-9.9 -2.08422,-23.6431 -2.72218,-30.5403 -0.88224,-9.5382 -0.87956,-16.9594 0.0112,-31 1.31163,-20.675 3.54855,-31.5099 6.97508,-33.785 1.1751,-0.7803 2.13654,-2.2219 2.13654,-3.2036 0,-3.2845 -8.87431,-23.0131 -13.44318,-29.8856 -4.35937,-6.5575 -9.08599,-11.4118 -17.00092,-17.4603 -2.06905,-1.5812 -8.63767,-9.4136 -14.59693,-17.4053 -14.58394,-19.5581 -22.656,-35.3873 -33.00374,-64.7199 -10.38125,-29.42762 -11.58851,-56.36252 -3.60852,-80.50872 4.95643,-14.9974 15.14295,-35.67323 24.04156,-48.79763 l 7.66588,-11.3064 -3.48319,-11.6936 c -5.91118,-19.8449 -13.07093,-55.3421 -16.11994,-79.9208 -2.01878,-16.2737 -1.98661,-75.3609 0.0526,-96.64738 2.40584,-25.11349 4.01638,-29.55844 14.66516,-40.47453 8.07659,-8.27934 13.03543,-11.06448 20.96471,-11.77485 6.00831,-0.53827 6.82912,-0.33713 14.58925,3.57519 8.92496,4.49958 13.72947,9.29541 17.22202,17.19092 4.17686,9.44247 5.05486,15.47951 5.06378,34.81785 0.0133,28.7389 4.51385,70.8464 11.10097,103.8605 l 1.06159,5.3206 5.88323,-5.6116 c 11.46673,-10.9374 25.08897,-14.1787 35.0293,-8.3349 5.437017,3.1963 11.026907,9.1415 13.911397,14.7956 2.23982,4.3904 3.22575,4.4172 5.43344,0.148 0.77784,-1.5042 3.73967,-4.0005 6.58185,-5.5474 4.46601,-2.4307 6.01785,-2.7584 11.43014,-2.4138 8.58698,0.5468 15.07655,4.598 28.92796,18.0589 6.07611,5.9048 11.51183,10.8907 12.07937,11.0799 0.56754,0.1892 1.82572,-0.6652 2.79595,-1.8986 2.75065,-3.4969 9.7541,-6.4201 15.3219801,-6.3953 9.90819,0.044 17.5480299,6.0226 31.2104399,24.4236 12.51169,16.8511 17.74416,26.4087 22.2022,40.5544 8.77474,27.8428 10.91327,45.76863 12.04926,101.00003 0.48077,23.37502 1.18514,46.39602 1.56527,51.15782 l 0.69115,8.6577 4.59481,0.689 c 2.52714,0.379 5.75616,1.2896 7.1756,2.0237 7.67789,3.9703 30.525373,36.3217 51.888003,73.4718 4.58591,7.975 14.14447,23.3851 21.24125,34.2446 7.09678,10.8595 14.76593,23.6265 17.04255,28.3711 l 4.13931,8.6265 -1.146,6.6289 c -2.92448,16.9163 -8.38191,29.8568 -19.94766,47.2995 -4.46701,6.7369 -23.59843,24.2872 -39.2719,36.0263 -32.154673,24.0832 -54.246233,34.7891 -83.069243,40.2567 -22.3269599,4.2354 -74.96883,5.741 -102.93076,2.9439 z m 59,-3.4262 c 32.54929,-1.808 47.57772,-4.0161 64.54024,-9.4831 34.10423,-10.9917 86.182003,-49.963 103.288143,-77.2935 3.84497,-6.1431 7.16675,-13.0577 9.06738,-18.8746 1.6497,-5.0489 4.14803,-11.4464 5.55185,-14.2167 1.40381,-2.7703 2.55239,-5.4951 2.55239,-6.0551 0,-1.6949 -5.86959,-10.8799 -15.04826,-23.5483 -9.56536,-13.2021 -16.35112,-24.0503 -25.95888,-41.5 -18.24749,-33.1412 -43.494583,-71.1192 -52.617853,-79.1506 -1.03125,-0.9078 -3.53156,-2.1005 -5.55624,-2.6504 -3.97469,-1.0795 -4.80488,-0.3694 -4.83167,4.1328 -0.0176,2.958 -3.45712,13.709 -5.94778,18.5911 -1.12163,2.1986 -2.03932,4.5207 -2.03932,5.1603 0,2.6562 -10.09784,15.1646 -20.92252,25.9171 -12.5408,12.4573 -25.4252899,22.6289 -39.5827499,31.2485 -23.2710101,14.1682 -34.7636601,18.1784 -74.9947301,26.168 -30.165817,5.9907 -34.596177,6.5618 -50.000007,6.4451 -18.71529,-0.1418 -18.77904,-0.1644 -21.5454,-7.628 -1.11233,-3.001 -1.31935,-3.1228 -2.55078,-1.5 -0.73712,0.9714 -1.35452,2.977 -1.37202,4.4571 -0.0175,1.48 -0.4297,2.9369 -0.91603,3.2375 -0.48633,0.3005 -1.21455,15.0812 -1.61827,32.8458 -0.83273,36.6419 0.28427,53.322 5.40591,80.7257 1.59329,8.525 3.20788,17.854 3.58798,20.7311 0.38011,2.8772 1.61829,6.4099 2.75153,7.8506 4.13129,5.2521 16.23984,8.42 39.75708,10.4015 13.430957,1.1316 44.262677,3.8239 50.000007,4.366 7.7322,0.7306 21.4319,0.5979 39,-0.3779 z m -89.202017,-160.5451 c 15.927947,-2.4756 55.247067,-11.109 65.202017,-14.3166 23.15632,-7.4613 51.5468601,-25.7497 72.94265,-46.9877 15.74898,-15.6329 22.20239,-25.9159 25.17966,-40.1219 1.5312,-7.3061 1.57303,-27.1058 0.0951,-45 -0.65869,-7.97502 -1.20651,-23.27502 -1.21739,-34.00002 -0.0406,-40.003 -4.54371,-78.39593 -11.72132,-99.93363 -3.17345,-9.5226 -3.32692,-9.8126 -10.61928,-20.0664 -23.2698299,-32.7199 -30.13785986,-39.2296 -39.5710599,-37.5065 -3.9175701,0.7156 -12.0883401,5.074 -12.0883401,6.4481 0,0.4715 2.01748,4.615 4.48329,9.2078 2.46581,4.5928 4.49081,8.9506 4.5,9.6839 0.0329,2.6277 -2.49744,0.4192 -5.62525,-4.9097 -1.90602,-3.2474 -9.36536,-11.4819 -18.59,-20.522 -22.03372,-21.5928 -30.03951,-25.1201 -40.82097,-17.9853 -2.15045,1.4231 -4.16779,3.6149 -4.48296,4.8707 -0.35853,1.4285 1.9077,9.6655 6.05371,22.0035 6.43653,19.1541 8.35042,28.6837 3.68183,18.3324 -1.20981,-2.6824 -2.19965,-5.2717 -2.19965,-5.7538 0,-0.4822 -1.97441,-5.0375 -4.38759,-10.1229 -2.41317,-5.0854 -5.62066,-12.3962 -7.12775,-16.2462 -3.09454,-7.9053 -5.0611,-10.8038 -12.31531,-18.1514 -8.845837,-8.9597 -17.334897,-10.4378 -28.519087,-4.9659 -2.95838,1.4474 -7.74237,4.9909 -10.6311,7.8745 l -5.25222,5.2428 0.56635,6.1156 c 0.6762,7.3018 6.98312,31.2168 12.61582,47.8376 2.22798,6.5742 4.02993,13.5492 4.00432,15.5 l -0.0466,3.5468 -2.45715,-4.7196 c -8.95262,-17.1958 -19.54317,-58.8724 -25.86365,-101.7804 -4.59521,-31.1955 -5.7865,-44.9459 -6.06757,-70.03423 -0.33113,-29.5576 -1.61294,-37.97388 -6.97075,-45.76963 -8.03638,-11.69315 -24.43849,-17.66353 -34.89475,-12.70172 -9.87612,4.68653 -19.60111,18.96419 -21.56687,31.66321 -2.5228,16.29756 -3.2906,35.72557 -2.81986,71.35197 0.46741,35.3753 0.62268,37.7981 3.55598,55.4904 4.46044,26.9032 8.44818,43.8177 15.91371,67.5 6.25506,19.8424 6.62394,21.5512 6.69201,31 0.0666,9.2505 -0.14068,10.3619 -2.76612,14.8285 -1.56099,2.65573 -3.03,4.63673 -3.26447,4.40223 -0.23448,-0.2345 0.53433,-3.53233 1.70844,-7.32853 l 2.13476,-6.9022 -2.74427,-11.2676 c -1.50935,-6.1972 -3.07641,-11.4729 -3.48234,-11.7238 -1.13277,-0.7001 -12.22051,17.5811 -19.07219,31.4458 -3.37222,6.82383 -7.91192,17.73263 -10.08822,24.24183 -3.52483,10.5424 -4.06711,13.4948 -4.96597,27.0369 -0.8373,12.6147 -0.7432,16.7619 0.55287,24.3654 3.02623,17.75362 16.30057,52.59772 27.20142,71.40152 6.3216,10.9047 23.46037,33.2577 28.20232,36.7825 2.01069,1.4946 7.06459,6.0925 11.23088,10.2175 8.69084,8.6047 14.91105,19.7169 19.42422,34.7008 4.27261,14.1852 5.37127,16.0759 10.00071,17.2104 4.96232,1.2161 23.90566,0.4411 36.29799,-1.485 z m -75.06277,-274.75805 c -1.20491,-3.002 -0.80489,-6.9201 1.14023,-11.1682 1.93863,-4.2339 11.14732,-13.5294 13.33171,-13.4574 0.71106,0.024 -0.54897,1.711 -2.80007,3.75 -6.98943,6.3311 -9.60939,10.6471 -10.30609,16.9778 -0.42852,3.8937 -0.86614,5.1427 -1.36578,3.8978 z m 200.314787,-13.4551 c -3.22758,-1.0975 -4.5553,-1.1972 -4.83333,-0.3631 -0.21084,0.6325 -1.0063399,1.15 -1.7677799,1.15 -1.74989,0 -0.45948,-3.96 1.7431599,-5.3493 2.25519,-1.4226 6.57278,0.061 8.43076,2.8964 0.90646,1.3834 1.47465,2.6647 1.26265,2.8472 -0.212,0.1825 -2.38796,-0.349 -4.83546,-1.1812 z m -114.05,-4.6589 c 0,-2.9394 10.70243,-3.3293 13.41369,-0.4887 0.80918,0.8478 -0.23078,0.9637 -4.0765,0.4545 -3.20772,-0.4248 -5.9532,-0.2607 -7.25,0.4333 -1.68966,0.9043 -2.08719,0.8283 -2.08719,-0.3991 z m 71.52186,-0.1131 c -1.37448,-1.0389 -3.35804,-1.335 -6.5,-0.9702 l -4.52186,0.525 3.5,-1.6137 c 4.95816,-2.2859 7.81252,-2.0242 10.82955,0.9928 2.38941,2.3894 2.44754,2.6221 0.64772,2.5932 -1.0875,-0.017 -2.86743,-0.7047 -3.95541,-1.5271 z m -175.521867,-95.2668 c 0,-1.52 4.45526,-5.0299 9,-7.0903 4.92946,-2.2348 15.90665,-2.8304 20.4349,-1.1088 4.89235,1.8601 2.64297,2.841 -5.27096,2.2986 -8.72572,-0.5981 -13.782,0.5689 -18.84722,4.35 -3.24918,2.4254 -5.31672,3.0284 -5.31672,1.5505 z m 5.06232,-66.83532 c -6.38125,-2.78046 -12.47534,-12.15365 -15.04666,-23.14296 -1.69223,-7.23229 -0.72904,-7.57353 1.26496,-0.44815 2.55491,9.12969 8.58153,18.32541 13.80704,21.06749 6.21166,3.25955 13.73549,2.68632 17.96832,-1.36899 5.19142,-4.9737 7.77222,-11.79624 8.52329,-22.53195 0.75048,-10.72724 -0.51194,-15.13338 -5.45612,-19.04317 -2.32225,-1.8364 -3.65554,-2.02658 -11.62315,-1.65791 -10.2859,0.47594 -15.06719,2.41004 -21.08275,8.52827 -2.19296,2.23038 -3.23714,2.8795 -2.56832,1.59661 1.84545,-3.53985 9.06114,-9.11958 13.9458,-10.78394 2.50885,-0.85486 7.75192,-1.55428 11.65127,-1.55428 8.3947,0 13.16405,2.55113 16.01969,8.56894 2.74867,5.79239 1.83774,22.07977 -1.64603,29.43106 -2.93673,6.19695 -6.82542,10.67149 -10.48271,12.06199 -3.59738,1.36772 -11.31468,1.00243 -15.27463,-0.72301 z"
       id="path3776"
       inkscape:connector-curvature="0"
       sodipodi:nodetypes="ccscssssscsscsssscssssssssscssssssssccsssscccssscssssccsssssssscssssssssssscsssssssssssssssssscssscsssssssscssccssssssssssscscscsssssssssscsccscccsccscssccscsccsccsscsssssssssssssssssss" />
    <path
       style="fill:#502d16;display:inline"
       d="m 412.07145,-59.74032 c -7.425,-0.74273 -20.90698,-2.05212 -29.95994,-2.90976 -9.05297,-0.85764 -19.62797,-2.26908 -23.5,-3.13653 -9.05577,-2.02876 -20.91796,-7.46731 -22.88583,-10.49265 -0.8438,-1.29722 -2.43788,-7.53359 -3.54241,-13.85859 -1.10453,-6.325 -2.67134,-15.1 -3.48181,-19.5 -1.35038,-7.3312 -2.13544,-15.0437 -5.70024,-56 -2.2142,-25.43919 1.62979,-61.80367 6.90322,-65.3051 1.19186,-0.79137 2.16701,-2.21748 2.16701,-3.16915 0,-2.94462 -8.61033,-22.45778 -12.92251,-29.28562 -3.94388,-6.24469 -9.56204,-12.05648 -17.51144,-18.11495 -2.07465,-1.58116 -8.6973,-9.45616 -14.71702,-17.5 -15.83313,-21.15704 -28.23547,-47.27289 -37.29303,-78.52864 -5.51419,-19.02831 -5.54926,-45.36293 -0.0854,-64.09654 3.82877,-13.12737 15.4966,-37.22151 24.58272,-50.76347 l 7.89283,-11.76347 -3.48628,-12.11228 c -4.3534,-15.12503 -11.60883,-48.87547 -14.48071,-67.36078 -1.78534,-11.49166 -2.32277,-20.89794 -2.99963,-52.5 -0.46471,-21.69742 -1.29797,-40.24572 -1.90926,-42.5 -1.76975,-6.5264 -2.92335,-26.8019 -1.86023,-32.695 2.93048,-16.2443 19.41462,-31.78441 38.04332,-35.86462 8.04541,-1.76217 23.46852,0.12055 29.38335,3.58687 10.35759,6.06995 15.28457,16.06316 16.11015,32.67561 0.56668,11.40276 -0.42295,18.89966 -3.91335,29.64552 -1.94205,5.97895 -1.99518,7.16955 -0.91307,20.45978 1.42717,17.52814 4.42425,41.52473 7.64262,61.19184 3.65587,22.34062 2.53185,20.66775 9.45192,14.06713 11.50639,-10.97524 25.11484,-14.22419 35.06866,-8.37247 5.4998,3.23326 11.03344,9.15434 14.01229,14.99339 l 2.18256,4.27816 1.61076,-2.48114 c 5.76981,-8.88759 17.16511,-12.49616 26.77774,-8.47974 5.71356,2.38727 16.12398,10.61059 25.21242,19.91559 4.60868,4.7185 8.59391,8.57908 8.85608,8.57908 0.26217,0 1.33069,-1.08571 2.37448,-2.41268 2.8732,-3.65268 9.78942,-6.59058 15.45575,-6.56536 9.91026,0.0441 17.54758,6.02202 31.22022,24.43677 16.36625,22.0426 22.36285,35.32788 27.77801,61.54127 4.38052,21.20503 5.52746,35.42129 6.45424,80 0.48595,23.375 1.19457,46.39599 1.5747,51.15775 l 0.69115,8.65776 4.59481,0.68903 c 2.52714,0.37897 5.72573,1.27733 7.10798,1.99637 2.79266,1.45272 11.43448,10.99825 17.7542,19.61082 6.81878,9.2927 25.34059,38.44307 34.23998,53.88827 4.59512,7.975 14.12859,23.34297 21.18548,34.15105 7.05689,10.80807 14.71346,23.57479 17.01459,28.37047 4.13845,8.62476 4.17246,8.78606 3.13262,14.85662 -0.57819,3.37545 -2.667,11.31299 -4.64179,17.63897 -3.35283,10.74034 -6.12326,16.16424 -15.40712,30.16378 -3.40112,5.12869 -21.07694,22.07251 -31.26479,29.97002 -36.56031,28.34117 -58.7497,39.81644 -88.54018,45.78865 -23.33196,4.67745 -76.00348,6.40452 -105.45982,3.45797 z m 58.63907,-3.4184 c 34.23128,-1.95655 48.55118,-4.07538 65.36093,-9.67109 25.58043,-8.51534 59.50286,-30.81911 85.58613,-56.27231 13.23076,-12.91116 21.75595,-25.78194 26.31212,-39.72436 1.58496,-4.85016 4.12637,-11.35623 5.64759,-14.45793 l 2.76585,-5.63945 -3.27998,-5.857 c -1.80398,-3.22134 -6.71161,-10.57939 -10.90584,-16.3512 -11.06403,-15.22558 -14.11547,-20.08952 -27.88191,-44.44335 -18.26847,-32.31821 -37.75118,-62.15126 -48.11827,-73.68148 -3.71297,-4.12953 -6.12417,-5.89113 -9.09613,-6.64549 -3.9091,-0.99223 -4.06084,-0.93826 -4.55165,1.61904 -1.59268,8.29849 -3.90469,16.05419 -6.04485,20.27758 -1.33818,2.64078 -2.43306,5.37903 -2.43306,6.085 0,2.67003 -13.36508,18.93779 -23.2333,28.27921 -23.04817,21.81775 -47.46586,37.09555 -72.54401,45.38972 -11.86883,3.92542 -53.78426,12.91655 -70.72464,15.17089 -8.83097,1.17519 -33.59283,0.86267 -36.61892,-0.46216 -0.89148,-0.3903 -2.31778,-2.48378 -3.16956,-4.65219 -1.81008,-4.60802 -3.44458,-5.06935 -4.2252,-1.19256 -0.30456,1.5125 -0.95586,4.1 -1.44735,5.75 -0.49149,1.65 -1.19178,17.175 -1.5562,34.5 -0.73059,34.73336 0.33667,51.03165 4.99621,76.29841 1.33901,7.26087 2.94398,16.57659 3.5666,20.70159 1.29923,8.60763 2.52121,10.9499 7.23135,13.86093 6.27178,3.87617 18.04493,5.8207 52.72502,8.70838 10.725,0.89303 23.325,1.96398 28,2.37989 12.87831,1.14572 23.98424,1.15333 43.63907,0.0299 z m -88.13907,-160.61212 c 19.15581,-3.17856 55.99765,-11.45098 66.19606,-14.86358 15.15524,-5.07126 33.38933,-15.25489 50.65014,-28.28778 11.2448,-8.49046 29.3806,-26.06209 35.37925,-34.27867 4.43118,-6.06955 9.15355,-16.84657 10.48892,-23.93698 1.3689,-7.26845 1.75966,-26.92769 0.68575,-34.5 -0.54601,-3.85 -1.40962,-23.875 -1.91912,-44.5 -1.64628,-66.64217 -7.53135,-100.0413 -20.79212,-118 -2.63979,-3.575 -7.47471,-10.29602 -10.74425,-14.93559 -11.44242,-16.2371 -21.50811,-25.08274 -28.51035,-25.05464 -3.14994,0.0126 -12.81206,4.50815 -13.49079,6.27688 -0.2877,0.74976 1.51229,5.15448 4,9.78827 2.4877,4.63379 4.53061,8.98758 4.5398,9.67508 0.0361,2.69824 -1.99742,0.99033 -5.35783,-4.5 -2.04049,-3.33381 -9.96396,-12.08708 -18.85608,-20.83084 -21.95239,-21.58612 -30.02679,-25.14697 -40.82231,-18.00283 -2.15045,1.4231 -4.16644,3.60954 -4.47997,4.85874 -0.35518,1.41515 1.75554,9.04743 5.59964,20.24811 7.48664,21.81404 9.16193,31.14033 2.95975,16.47682 -2.21001,-5.225 -5.39196,-12.31801 -7.07102,-15.76224 -1.67905,-3.44423 -3.65758,-7.97629 -4.39672,-10.07125 -3.94885,-11.19222 -14.00881,-23.77954 -22.05737,-27.59883 -7.73293,-3.66952 -20.49613,0.006 -29.25482,8.42481 -7.03535,6.76232 -7.28706,7.44366 -5.72889,15.50751 1.92608,9.96788 7.7491,30.98408 12.4553,44.95316 2.21486,6.57424 4.00608,13.54924 3.98047,15.5 l -0.0466,3.54684 -2.45715,-4.71957 c -6.17262,-11.85619 -15.18081,-42.21206 -19.81725,-66.78043 -10.63351,-56.34675 -13.51513,-91.66335 -9.22012,-113 1.22356,-6.07835 1.94391,-14.00218 2,-22 0.0842,-11.99917 -0.0333,-12.7404 -2.93131,-18.5 -5.18615,-10.30708 -14.2224,-14.87193 -29.48103,-14.89296 -15.05137,-0.0208 -28.07916,6.37126 -37.19868,18.25131 -6.62522,8.63071 -8.22517,14.63632 -7.48625,28.10062 0.31816,5.79757 1.45853,14.81603 2.53415,20.04103 1.5214,7.39043 2.09907,15.57416 2.60144,36.85374 0.76334,32.33377 1.6541,43.56382 5.0952,64.23608 4.45832,26.78317 7.79182,40.52165 16.23507,66.91018 5.21292,16.29248 5.60341,18.19001 5.65917,27.5 0.0553,9.23933 -0.15599,10.36729 -2.77826,14.82851 -1.56099,2.65567 -3.03,4.63666 -3.26447,4.40219 -0.23448,-0.23447 0.53433,-3.5323 1.70844,-7.32851 l 2.13476,-6.90219 -2.74427,-11.26761 c -1.50935,-6.19719 -3.07641,-11.47288 -3.48234,-11.72376 -1.12194,-0.6934 -12.19433,17.52812 -18.91546,31.12863 -10.82542,21.90568 -14.47758,35.02115 -15.59831,56.01578 -0.93962,17.60206 1.99051,30.73612 13.23993,59.34696 9.32974,23.72849 15.55272,34.8803 29.94569,53.6638 8.90222,11.6178 10.92798,13.72783 18.49528,19.26456 10.01377,7.32675 19.24799,22.05941 24.80292,39.57164 1.74462,5.5 3.588,10.675 4.09641,11.5 0.50841,0.825 1.35738,2.49993 1.88662,3.72207 0.52923,1.22214 2.21566,2.499 3.74761,2.83747 1.53195,0.33847 3.23537,0.78802 3.78537,0.999 1.99034,0.7635 25.21177,-0.73329 34,-2.19153 z m -75.7648,-274.6988 c -1.20491,-3.00202 -0.80489,-6.92012 1.14023,-11.16821 1.92085,-4.19505 11.11124,-13.50074 13.33173,-13.49896 0.71106,5.6e-4 -1.07118,2.26872 -3.96054,5.04033 -7.10957,6.81985 -8.41162,9.06042 -9.14677,15.73967 -0.42791,3.88797 -0.86482,5.13249 -1.36465,3.88717 z m 200.39915,-13.36904 c -3.65888,-1.29315 -4.50209,-1.32219 -5.20836,-0.17941 -0.57942,0.93752 -1.16525,1.04098 -1.87508,0.33115 -1.54145,-1.54145 1.58543,-5.45091 4.35977,-5.45091 2.36855,0 7.58932,4.09462 7.58932,5.95225 0,0.57626 -0.1125,1.01222 -0.25,0.9688 -0.1375,-0.0434 -2.21454,-0.77327 -4.61565,-1.62188 z m -114.13435,-4.657 c 0,-2.93585 9.23493,-3.74272 12.55887,-1.09728 1.7956,1.42908 1.55408,1.49791 -3.22168,0.91816 -3.1183,-0.37855 -5.98935,-0.18439 -7.25,0.49029 -1.66339,0.89022 -2.08719,0.82704 -2.08719,-0.31117 z m 71.52186,-0.20103 c -1.37448,-1.03897 -3.35804,-1.33505 -6.5,-0.97027 l -4.52186,0.525 3.5,-1.61365 c 4.95816,-2.28592 7.81252,-2.02425 10.82955,0.99278 2.38941,2.38941 2.44754,2.62215 0.64772,2.5932 -1.0875,-0.0175 -2.86743,-0.70467 -3.95541,-1.52706 z m -172.95836,-98.54392 c 0.37485,-0.60652 2.98891,-2.17713 5.80902,-3.49023 6.34065,-2.95234 14.84482,-3.23976 18.79399,-0.63518 2.65142,1.74868 2.62501,1.75653 -4.67058,1.38812 -5.59479,-0.28253 -8.78171,0.12943 -13.42051,1.73478 -7.01565,2.42791 -7.43253,2.49209 -6.51192,1.00251 z m 1.76434,-64.13653 c -6.28432,-3.40518 -11.19573,-10.88057 -13.96851,-21.26069 -1.99441,-7.46628 -1.52748,-8.88413 0.65746,-1.99637 3.03819,9.57757 8.99411,18.57126 14.11546,21.31498 6.12948,3.28381 13.66611,2.7068 17.92373,-1.37224 5.19142,-4.9737 7.77222,-11.79624 8.52329,-22.53195 0.76625,-10.95267 -0.56437,-15.3435 -5.77392,-19.05302 -2.59269,-1.84616 -3.99426,-2.0462 -11.62673,-1.65943 -11.49022,0.58227 -18.35824,3.97456 -23.33862,11.52755 -1.00477,1.52376 -1.82981,2.17863 -1.83343,1.45526 -0.004,-0.72337 2.35973,-3.68154 5.2519,-6.5737 6.3226,-6.3226 12.1734,-8.61108 22.01536,-8.61108 8.5635,0 11.9541,1.80369 14.99741,7.97816 1.88667,3.82779 2.22299,6.13346 2.19116,15.02184 -0.0335,9.35271 -0.32422,11.04633 -2.66071,15.5 -1.44271,2.75 -4.24149,6.55388 -6.21951,8.45306 -3.20077,3.07319 -4.28317,3.4869 -9.83931,3.76069 -4.9806,0.24543 -7.08648,-0.14947 -10.41503,-1.95306 z"
       id="path3776-1"
       inkscape:connector-curvature="0"
       sodipodi:nodetypes="ssssssssssssssscsssssssssssssscsssssssssscsssssssssssscsssscsssssssssssssssssssssccsssssssssccscssssssssssssccsssssssssssssscscssssssssssssssscsssssssscsssssssscssssssssssssssssssscssssssss"
       inkscape:export-filename="F:\-JAREK-\1-gra logiczna\zadanie 11\ręka.png"
       inkscape:export-xdpi="90"
       inkscape:export-ydpi="90" />
    <path
       style="fill:#000000;display:inline"
       d="m 834.095,37.631843 c -7.74835,-1.1344 -29.06394,-5.6508 -35.13009,-7.4434 -5.58572,-1.6507 -12.36294,-5.3917 -14.70205,-8.1155 -2.82242,-3.2865 -10.33105,-28.6568001 -14.5299,-49.0939 -1.08835,-5.2973 -1.75221,-15.5343 -2.09203,-32.2597 -0.55864,-27.4959 0.0685,-33.1541 6.16602,-55.632003 1.91987,-7.0774 4.40875,-18.9266 5.53084,-26.3316 1.22883,-8.1095 2.85649,-15.0299 4.09291,-17.402 1.12902,-2.1661 1.65637,-4.2074 1.17189,-4.5364 -0.48448,-0.3289 -4.2254,-2.7992 -8.31315,-5.4895 -4.08776,-2.6903 -9.2015,-6.0653 -11.36387,-7.5 -7.24176,-4.8047 -31.76286,-29.48622 -40.78359,-41.05032 -11.05252,-14.1688 -12.5351,-16.6942 -20.47278,-34.8739 -3.51125,-8.0418 -7.83037,-16.8826 -9.59806,-19.6462 l -3.21398,-5.0247 0.21682,-15.50673 c 0.34263,-24.5038 2.77522,-31.5631 16.94777,-49.1824 3.39578,-4.2216 8.40321,-10.979 11.12761,-15.0164 4.54645,-6.7375 17.15542,-19.8079 19.10866,-19.8079 0.45522,0 -2.04177,-7.5375 -5.54887,-16.75 -5.63991,-14.815 -12.35199,-35.7532 -12.35199,-38.5318 0,-0.5478 -3.30544,-4.4557 -7.34543,-8.6843 -14.64832,-15.3323 -23.65539,-32.4426 -32.12895,-61.0339 -5.3714,-18.12411 -6.49117,-24.68047 -7.17321,-42 -0.66948,-17.00063 0.34822,-24.69979 5.40273,-40.87286 2.13657,-6.83646 3.54598,-9.39178 7.6808,-13.92566 9.43567,-10.34632 24.46633,-18.33665 37.36739,-19.86459 10.21863,-1.21025 20.72429,7.03956 28.22349,22.16311 1.71521,3.45905 4.03534,11.08189 5.47857,18 5.25177,25.17421 18.47724,69.07859 23.12837,76.77885 2.21567,3.66819 3.42615,4.72115 5.42746,4.72115 4.39246,0 13.11938,2.99201 20.61309,7.0672 l 7.17431,3.9014 2.71739,-3.2343 c 3.7743,-4.49224 5.6957,-5.68403 13.30169,-8.25059 9.93386,-3.35207 16.0826,-3.93078 22.36365,-2.10483 5.8321,1.69543 14.9442,7.57015 21.35885,13.77042 3.81196,3.6845 4.27519,3.8692 6.80974,2.7143 2.13416,-0.9724 3.95735,-0.9834 8.47,-0.051 3.16275,0.6532 6.7789,1.1877 8.03588,1.1877 1.25699,0 3.47991,0.845 4.93981,1.8778 1.4599,1.0328 8.50437,4.808 15.65437,8.3894 19.17585,9.6052 39.14993,23.2161 51.40088,35.0263 7.82252,7.541 12.29692,17.4566 16.58262,36.7481 3.2151,14.4724 8.6848,50.0678 11.9026,77.4584 0.7754,6.6 2.82434,24.15 4.55314,39.00003 3.5211,30.2445 8.852,66.6956 9.8837,67.5814 0.3724,0.3198 2.5564,1.1154 4.8534,1.7681 7.1494,2.0314 10.5241,7.5975 22.7913,37.59092 3.1358,7.6672 7.4573,17.4324 9.6032,21.7004 10.7019,21.2851 20.2898,45.979 26.9302,69.359203 5.477,19.2842 6.3156,23.1026 5.6532,25.7417 -1.9306,7.6922 -17.9968,26.6649 -32.1542,37.9712 -35.5091,28.3582999 -97.92268,49.533 -167.50004,56.8271 -28.86948,3.0265 -37.96869,3.3795 -48.26216,1.8725 z m 37.80071,-8.3782 c 42.04539,-1.7278 95.85536,-14.3138 132.60009,-31.0147001 30.7103,-13.9581999 52.9475,-30.7681999 67.2896,-50.8667999 6.1937,-8.6797 6.7832,-12.562 3.1401,-20.68 -1.4835,-3.3057 -4.8848,-13.0894 -7.5584,-21.7416 -5.0694,-16.405503 -12.0899,-33.998403 -22.0529,-55.263703 -3.2294,-6.8928 -8.0975,-18.1428 -10.8179,-25 -10.2049,-25.72212 -14.8924,-33.96752 -19.3105,-33.96752 -1.5773,0 -1.7685,0.837 -1.5629,6.8394 l 0.2343,6.83942 -7.4379,9.732 c -12.06144,15.7814 -15.21214,18.1443 -41.44007,31.077 -19.91584,9.8203 -25.34072,12.029 -39.12207,15.928 -25.86867,7.3187 -47.56573,9.938 -63.57196,7.6745 -14.87454,-2.1034 -53.17341,-11.6275 -57.92804,-14.4054 -6.17522,-3.6079 -11.12884,-7.9068 -10.62476,-9.2204 0.52714,-1.3737 -2.32963,-4.4645 -4.12643,-4.4645 -1.64968,0 -3.07672,5.3108 -4.70236,17.5 -1.93551,14.5127 -2.74174,18.496 -6.98279,34.5 -4.69246,17.707403 -5.9015,33.937203 -4.61871,62.000003 0.89797,19.6443 1.10676,21.0844 5.00201,34.5 6.69541,23.0596 9.05193,29.4572 11.39826,30.9447 3.62699,2.2993 12.3642,4.4129 30.65478,7.4157 18.1489,2.9795 19.05339,3.0089 51.53855,1.6739 z m 19.46145,-167.074403 c 21.49222,-2.4481 45.73075,-9.4679 65.53565,-18.9802 8.78039,-4.2173 18.69865,-8.9651 22.04055,-10.5508 9.1782,-4.3549 14.6271,-9.0194 23.42584,-20.0533 8.8498,-11.09792 8.9225,-11.34992 6.5401,-22.67562 -2.8152,-13.3827 -6.502,-36.8428 -8.0463,-51.2 -0.85784,-7.975 -2.66194,-23.275 -4.00914,-34.00003 -1.3472,-10.725 -3.3705,-27.15 -4.4962,-36.5 -5.514,-45.7965 -10.8014,-73.2493 -17.14136,-89 -4.50711,-11.1973 -4.49191,-11.1816 -24.84914,-25.6077 -14.89069,-10.5522 -22.26935,-15.0484 -35.18255,-21.4384 -6.2246,-3.0802 -12.84728,-6.5457 -14.71708,-7.7012 -3.76877,-2.3289 -19.70809,-3.9916 -18.97901,-1.9797 1.1307,3.1201 10.66748,13.7959 17.98982,20.1385 11.15459,9.662 15.9809,14.3298 15.40843,14.9022 -0.2592,0.2592 -1.04465,0.016 -1.74544,-0.5412 -0.7008,-0.5569 -6.67417,-5.176 -13.27417,-10.2648 -6.6,-5.0887 -16.725,-14.1059 -22.5,-20.0383 -11.10674,-11.4094 -19.94296,-17.8536 -27.30846,-19.91577 -3.89088,-1.08938 -5.49064,-0.99021 -12.33122,0.7644 -8.36034,2.14447 -21.36032,7.64437 -21.36032,9.03697 0,0.4592 0.96696,1.6923 2.14879,2.74 1.18184,1.0478 8.28754,10.0825 15.79045,20.0773 17.78989,23.6982 21.32131,27.3769 31.63212,32.9519 6.10749,3.3022 8.42864,5.0913 8.42864,6.4966 0,1.7753 -0.48646,1.6703 -5.75,-1.2407 -15.44539,-8.5421 -22.28586,-15.0709 -39.88862,-38.0708 -13.61444,-17.7887 -16.4463,-20.5085 -27.48199,-26.3944 -14.54316,-7.75664 -18.22632,-7.70711 -11.53435,0.1551 4.65318,5.4669 5.23774,6.7517 11.26493,24.7585 7.59604,22.694 19.82716,43.8241 33.88441,58.5377 6.60092,6.9091 8.17324,8.0401 12.20888,8.7821 5.02366,0.9237 7.1704,3.3517 2.96341,3.3517 -1.375,0 -2.67151,0.5145 -2.88114,1.1434 -0.6654,1.9962 -3.84117,-0.4811 -13.84314,-10.7984 -5.82207,-6.0057 -12.49974,-14.344 -17.12321,-21.3817 -11.243,-17.1135 -15.78951,-26.9055 -21.18177,-45.6197 -1.58649,-5.5061 -3.49859,-9.5679 -5.88441,-12.5 -5.91237,-7.2663 -13.90379,-21.76193 -17.41826,-31.59498 -4.29002,-12.00294 -14.72692,-49.39414 -17.77188,-63.66946 -2.96261,-13.88924 -5.01206,-19.06973 -10.55584,-26.68252 -5.3473,-7.343 -10.94467,-10.89664 -17.16338,-10.89664 -9.86012,0 -23.39079,6.00558 -31.56541,14.0103 -6.96707,6.82226 -13.47044,21.58265 -15.85692,35.9897 -1.52464,9.20415 -1.59466,12.1983 -0.56738,24.26101 1.39124,16.33654 2.12653,20.14029 7.21881,37.34409 6.8732,23.2205 16.0105,42.0116 27.12647,55.7865 5.9434,7.365 7.29184,8.5668 7.85414,7 0.57561,-1.6039 0.90348,-1.3593 2.15585,1.6084 0.81235,1.925 2.94036,8.45 4.72891,14.5 9.55488,32.3206 31.74537,84.223 44.34685,103.7249 5.45959,8.4492 8.71504,14.1249 8.71504,15.1941 0,0.285 -0.675,0.2592 -1.5,-0.057 -1.16399,-0.4466 -1.5,0.2396 -1.5,3.0635 0,3.4953 -2.30801,10.5749 -3.44752,10.5749 -0.30227,0 -0.47067,-3.4875 -0.37423,-7.75 0.19595,-8.6609 2.04587,-4.1628 -17.37602,-42.25 -4.62763,-9.075 -10.09511,-20.2923 -12.14994,-24.9272 l -3.73607,-8.4273 -6.07804,5.9273 c -3.34292,3.2599 -8.12914,9.0772 -10.63605,12.9272 -2.50691,3.85 -7.10676,10.15 -10.2219,14 -8.34797,10.3173 -13.7002,19.3273 -15.43314,25.9805 -0.84452,3.2423 -1.8035,11.3231 -2.13106,17.9573 l -0.59558,12.06223 10.10092,22.9045 c 10.92947,24.7833 15.79892,32.923 29.38766,49.1237 8.71905,10.3951 29.28272,29.90722 36.19097,34.34042 12.54828,8.0526 23.90819,16.8579 26.44662,20.4993 3.84379,5.514 10.78698,8.063 41.05338,15.0715 31.45065,7.2828 32.37212,7.3701 53,5.0205 z m -81.27788,-231.69905 c -0.7627,-5.3087 0.29908,-9.1713 2.78306,-10.1245 2.51814,-0.9663 11.49482,-0.7602 11.49482,0.2639 0,0.4951 -2.25939,1.4422 -5.02088,2.1047 -5.41521,1.2991 -6.91003,2.9877 -7.96278,8.995 l -0.61335,3.5 z m 44.88845,-38.3333 c -0.71418,-1.8612 0.78112,-4.9878 2.97164,-6.2137 1.88467,-1.0547 8.56773,0.8296 8.09106,2.2813 -0.18146,0.5526 -1.32431,1.1508 -2.53968,1.3293 -1.21536,0.1785 -2.75086,1.191 -3.41221,2.25 -1.45244,2.3258 -4.27889,2.521 -5.11081,0.3531 z m 40.38943,-18.9597 c 0,-1.8959 3.14233,-7.4737 4.67144,-8.2921 2.60548,-1.3944 11.32856,-0.2746 11.32856,1.4543 0,0.9159 -1.2427,1.3707 -3.75,1.3722 -2.71751,0 -4.71366,0.8271 -7.25,2.9977 -3.30853,2.8314 -5,3.6663 -5,2.4679 z m 54,-7.9268 c -1.66862,-0.9237 -4.12456,-1.1921 -7.3851,-0.8072 -5.51647,0.6512 -5.9643,-0.6373 -1.40467,-4.0415 2.58354,-1.9289 2.58537,-1.9287 7.93695,0.9391 2.94405,1.5777 5.24032,3.3185 5.10282,3.8685 -0.3851,1.5404 -1.52149,1.5514 -4.25,0.041 z m -186.39781,-29.1354 c -0.85602,-2.2307 4.70607,-7.1853 8.96287,-7.9839 3.88554,-0.7289 8.43494,0.1326 8.43494,1.5973 0,0.5395 -1.14735,0.9809 -2.54966,0.9809 -3.11895,0 -7.30966,2.0821 -9.85769,4.8976 -2.26745,2.5055 -4.15041,2.6972 -4.99046,0.5081 z m -35.60219,-63.45789 c -11.02372,-2.0013 -13.32998,-3.20903 -16.20192,-8.48458 -3.26409,-5.99587 -8.59942,-21.73474 -9.43538,-27.83368 -0.47775,-3.48558 -0.0709,-5.58724 1.92621,-9.94944 5.11105,-11.16399 14.61503,-18.59554 26.34919,-20.60348 3.22404,-0.55169 7.4369,-1.27769 9.3619,-1.61333 2.82113,-0.49188 3.73356,-0.22495 4.70414,1.37623 1.46525,2.41722 4.17262,17.4204 5.35232,29.66047 0.47708,4.95 1.35941,13.47188 1.96073,18.93752 1.27152,11.55741 0.57982,13.26349 -7.00333,17.27355 -4.52763,2.39427 -8.89084,2.71143 -17.01386,1.23674 z m 17.1375,-5.39527 c 1.98097,-1.34611 3.80075,-3.25861 4.04396,-4.25 0.58139,-2.36994 -3.46037,-40.52317 -5.35529,-50.55254 -0.7911,-4.18714 -1.52677,-5.75 -2.70665,-5.75 -2.96252,0 -14.56628,2.71829 -18.28187,4.28271 -4.54294,1.91275 -10.77446,8.04695 -14.31915,14.09551 -3.6801,6.27962 -3.47846,11.13261 1.00927,24.29011 5.19535,15.23216 6.20905,16.96066 9.65963,16.47096 0.37807,-0.0537 2.62807,0.78317 5,1.85961 6.48095,2.94123 16.27179,2.73263 20.9501,-0.44636 z"
       id="path3776-7"
       inkscape:connector-curvature="0"
       sodipodi:nodetypes="cccssssscssssscssssssssssssssssscssssccsssssssccssscssccsssssscsscssssssssssscsscsssssssssscssccssssscsssssssssssssssssssssssssssssscsssssccsssscsssssccssssscscccsscscscsscsscsccscsssssssssssssssssssssscss" />
    <path
       style="fill:#fecd81;fill-opacity:1;stroke:none;display:inline"
       d="m 1300.3873,-1016.0427 -14.2857,9.2857 -11.25,16.07144 -1.9643,9.10714 1.0714,20 3.2143,20.71428 1.25,33.75 1.7857,42.85715 8.0357,42.67857 11.4286,40.89286 -3.0357,6.42857 -25.3572,46.25 -9.4642,40.89286 0.7142,17.5 8.9286,32.85714 13.2143,31.60714 7.1429,13.92857 17.3214,24.82143 14.4643,13.57143 12.1428,12.5 10.5357,22.14286 5.3572,14.64285 6.25,8.75 78.3928,58.03572 130.7143,-108.57143 2.5,-66.60714 -4.2857,-0.35715 -2.1428,-30.89285 -3.3929,-79.64286 -6.0714,-41.78571 -8.2143,-26.42858 -18.0357,-25.35714 -22.1429,-21.07143 -6.9643,0.17857 -9.8214,3.39286 -6.7857,5.71429 -20.1786,-18.03572 -17.6786,-12.14286 -12.8571,1.25 -10.5357,11.60715 -4.4643,-6.60715 -11.0714,-11.60714 -9.8215,-5.17857 -8.0357,0.35714 -12.8571,6.07143 -13.75,11.78572 -2.8572,-18.92858 -5.5357,-33.92857 -3.2143,-38.75 1.9643,-15.53571 3.2143,-22.5 -1.25,-17.5 -4.4643,-9.99998 -10,-8.2143 -24.2857,-3.3929 z"
       id="path3844-7"
       inkscape:connector-curvature="0" />
    <path
       style="fill:#d07f33;fill-opacity:1;stroke:none;display:inline"
       d="m 1301.1559,-1015.3568 17.1725,-4.7982 17.9303,3.0304 9.3439,6.0609 7.071,10.8592 1.7678,18.18273 -3.7881,26.26397 -1.5152,9.84899 4.5457,51.26524 5.3033,36.87057 3.2777,6.08013 8.9181,-7.1617 -1.6349,14.92621 1.2868,9.04908 14.5007,39.9852 7.0368,6.83127 11.6646,-0.55244 -2.8085,5.01306 -9.4421,6.53725 -10.7436,0.35488 -6.2274,19.21363 -5.1383,4.67611 -5.6392,0.60826 0.8314,-13.43205 -1.3364,-14.09461 -2.7187,-12.91574 -10.1608,-5.51955 -11.1116,0.50508 5.3033,-7.82868 10.6066,-6.81853 0.2525,-14.14214 -11.238,-44.69925 -1.0553,-11.22119 -4.6268,-8.09798 -6.3134,-2.14657 -12.9143,-0.28435 -11.8345,3.31481 5.4296,-8.2075 5.3627,-3.67954 8.1563,-0.52178 8.9876,-0.46886 -0.662,-12.62867 1.0101,-13.13198 0.5051,-16.92005 -2.2729,-8.33377 -6.8185,5.55584 -11.8693,-0.25254 -7.8287,-5.3033 10.3541,2.27285 9.849,-4.29315 8.5863,-14.14214 -0.2525,-16.16244 -2.0203,-13.38452 -3.283,-6.31344 -13.3846,-6.566 -13.8896,0.7576 -18.9403,6.8185 z"
       id="path3846-0"
       inkscape:connector-curvature="0"
       sodipodi:nodetypes="cccccccccccccccccccccccccccccccccccccccccccccccccccccccccc" />
    <path
       style="fill:#ffccaa;fill-opacity:1;stroke:none;display:inline"
       d="m 1293.8694,-987.20342 4.1072,-5.08929 8.2143,-6.07143 9.375,-2.41076 11.4285,0.2679 4.2857,2.14286 3.3036,3.83929 2.0536,6.42857 c 0,0 -0.3572,17.76786 -0.5357,18.21429 -0.1786,0.44643 -3.75,9.19643 -3.75,9.19643 l -5.625,6.51785 -7.8572,2.41072 -6.6964,-1.25 -5.5357,-2.85715 -7.1429,-8.125 -5.625,-14.375 -0.625,-8.66071 z"
       id="path3848-5"
       inkscape:connector-curvature="0" />
    <path
       style="fill:#d07f33;fill-opacity:1;stroke:none;display:inline"
       d="m 1386.2801,-867.11414 9.6144,3.49876 6.0999,8.28696 4.6429,24.64285 10.5357,28.03572 -5,5.71428 -3.3929,6.60715 2.8572,-0.89286 14.6428,-1.25 8.75,1.07143 9.4643,7.32143 -1.9643,-13.92857 -5,-21.07143 -10.1785,-26.07143 0.5357,-5 8.3928,-7.67857 -13.3928,7.5 -4.2857,2.5 -11.9643,-14.82143 -7.8581,-5.90543 -10.3562,-0.34457 z"
       id="path3850-0"
       inkscape:connector-curvature="0"
       sodipodi:nodetypes="cccccccccccccccccccccc" />
    <path
       style="fill:#d07f33;fill-opacity:1;stroke:none;display:inline"
       d="m 1470.1039,-791.22921 7.071,-1.76776 7.2063,-1.61983 -1.093,-7.04569 -9.1437,-14.69426 -23.9911,-27.90546 -9.9753,-8.96511 -8.9651,-1.89403 0.7576,-2.52539 10.6066,-0.75761 12.7532,6.81853 17.2988,13.8896 9.2177,9.09137 2.5254,-2.27284 9.4702,-5.3033 4.4194,-0.63135 -6.6923,6.69226 2.3991,11.61675 5.0508,11.61676 3.283,12.62165 0.8791,5.60378 -1.2765,2.28228 -3.013,-1.1347 -2.9031,0.95631 -4.5457,1.38896 -5.9346,-1.38896 -3.5355,-4.16688 -4.5457,-1.76777 z"
       id="path3852-7"
       inkscape:connector-curvature="0"
       sodipodi:nodetypes="ccccccccccccccccccccccccccccc" />
    <path
       style="fill:#d07f33;fill-opacity:1;stroke:none;display:inline"
       d="m 1496.8159,-837.11414 5.7142,3.39286 7.1429,8.21429 6.4286,14.46428 1.0714,10.35715 4.6429,7.5 -4.4643,1.42857 -3.2143,5.71428 5.3571,-1.42857 7.1429,2.85715 6.4538,-0.96859 4.0423,2.94185 -0.2703,5.43666 4.9616,20.19392 4.2931,43.43656 -0.505,48.48733 -6.3135,43.94163 -13.637,37.88072 -24.2437,32.82996 -35.8604,26.26396 -33.8401,12.62691 -38.7983,11.02911 -34.9429,5.13334 34.8009,1.06485 48.0316,-10.15623 27.7792,-7.07107 c 0,0 47.9823,-28.28427 50.0026,-29.29442 2.0203,-1.01015 27.2741,-26.26397 27.2741,-26.26397 l 16.1624,-23.73858 3.5356,-22.22336 -3.5356,-72.22591 -4.5456,-66.67006 -10.6066,-35.35534 -13.132,-19.69798 -24.7488,-28.28427 z"
       id="path3854-8"
       inkscape:connector-curvature="0"
       sodipodi:nodetypes="ccccccccccccccccccccccccccsccccccccc" />
    <path
       style="fill:#d07f33;fill-opacity:1;stroke:none;display:inline"
       d="m 1303.9338,-576.19298 24.2436,15.65737 8.3567,1.48812 7.8058,1.03725 2.2728,6.81854 0,12.12182 11.4779,38.94486 7.1577,4.71001 -11.5645,-3.5013 -21.4658,-47.47717 -15.6573,-11.61676 -11.6168,-14.64721 z"
       id="path3856-0"
       inkscape:connector-curvature="0"
       sodipodi:nodetypes="ccccccccccccc" />
    <path
       style="fill:#ffe6d5;stroke:none;display:inline"
       d="m 1315.7444,-998.45342 -10.1785,2.41071 -6.875,3.66072 -4.4643,4.55357 -0.9822,3.21428 0.9822,6.875 4.2857,11.78572 5.8036,8.48214 7.2321,4.46429 11.5179,-0.17857 6.3392,-3.83929 -4.8214,-41.33929 -1.6071,0.0893 3.3928,37.58929 -2.4107,1.60714 -3.3928,-34.46429 -1.0715,0.80357 1.7857,33.21429 -4.2857,-13.92857 -1.7857,-20 z"
       id="path3858-6"
       inkscape:connector-curvature="0" />
    <path
       style="fill:#ffd99f;fill-opacity:1;stroke:none;display:inline"
       d="m 1283.4782,-994.39614 -3.0945,14.07957 -1.1987,7.63871 3.5356,14.64722 6.3134,30.05203 -1.0101,31.56727 -1.7678,13.13198 2.5254,15.9099 5.5558,39.90103 9.3439,36.61803 8.8389,37.12311 5.3033,7.07107 -2.7779,-18.43529 5.3033,-17.17259 7.3236,-12.37437 -4.5457,2.77792 -6.8186,9.09137 -3.283,-4.54568 -10.6066,-37.37565 -5.5558,-41.92133 5.0508,-16.92005 1.7677,-5.3033 -3.5355,-4.54569 -4.5457,-8.5863 -1.7678,-26.5165 -5.8083,-30.55712 -3.1898,-13.65022 0.1593,-7.81552 2.2729,-13.8896 3.788,-7.32356 -3.0304,1.0101 z"
       id="path3870-9"
       inkscape:connector-curvature="0"
       sodipodi:nodetypes="cccccccccccccccccccccccccccccccc" />
    <path
       style="fill:#ffd99f;fill-opacity:1;stroke:none;display:inline"
       d="m 1380.9579,-861.056 -6.0609,3.283 -2.2729,7.57614 2.5254,12.87944 18.1828,42.67895 4.7982,3.78807 2.0203,-2.52538 -4.7982,-2.52538 -17.1726,-45.20433 0,-11.86929 z"
       id="path3872-6"
       inkscape:connector-curvature="0" />
    <path
       style="fill:#ffd99f;fill-opacity:1;stroke:none;display:inline"
       d="m 1308.732,-738.06993 -9.0914,14.89975 -5.5558,22.72843 7.8287,38.89088 12.1218,23.99112 23.7386,39.14341 6.8185,23.99112 -4.7982,-32.07234 -19.4454,-50.25509 -15.4049,-33.84011 2.2729,-21.46574 z"
       id="path3874-4"
       inkscape:connector-curvature="0" />
    <path
       style="fill:#aaccff;stroke:none;display:inline"
       d="m 1349.6432,-504.85096 5.8084,8.71257 10.2277,1.51523 c 0,0 32.3249,-1.51523 33.0825,-1.38896 0.7577,0.12626 62.7558,-13.51079 62.7558,-13.51079 l 26.0114,-11.36422 25.1275,-16.41498 26.6428,-22.98097 16.6675,-20.07678 9.0914,-26.64278 0.8839,-4.92449 4.4194,-0.25254 10.7329,4.67196 22.3496,31.18846 16.0362,22.72843 52.1571,87.0124 0.8928,4.10714 -4.4642,12.85715 -12.8572,29.82142 -13.9286,16.25 -24.2857,21.78572 -26.4285,18.39285 -30,16.42857 -25.5358,7.32143 -25.3571,3.03572 -37.3214,1.96428 -44.2857,-0.71428 -40,-4.46429 -26.7858,-5.17857 -8.9285,-7.67857 -4.2857,-29.64286 -6.4286,-53.39285 -0.3572,-44.28572 5.7143,-20.89285 z"
       id="path3876-1"
       inkscape:connector-curvature="0" />
    <path
       style="fill:#5488d6;fill-opacity:1;stroke:none;display:inline"
       d="m 1354.4414,-354.96958 c 0,0 46.4502,10.30344 72.731,11.11168 26.2808,0.80824 59.7969,-1.82969 83.8426,-7.57614 24.0458,-5.74645 43.5263,-13.95207 59.599,-23.73858 16.0728,-9.78652 28.3689,-20.02005 36.8199,-31.95723 8.451,-11.93717 12.7859,-21.31547 14.3252,-36.27485 1.5394,-14.95938 -3.965,-33.97299 -8.7186,-50.48188 -4.7537,-16.50888 -13.4432,-35.94902 -19.698,-47.96121 -6.2548,-12.01219 -8.6772,-23.21713 -15.8815,-24.75309 -7.2042,-1.53597 -6.2305,3.39844 -12.3669,8.1066 -6.1364,4.70815 -13.5345,13.94606 -23.5906,21.05475 -10.0562,7.10869 -23.3125,13.60945 -37.0544,20.34047 -13.742,6.73102 -28.564,14.41401 -45.4569,19.69798 -16.8929,5.28397 -32.5774,4.29315 -32.5774,4.29315 0,0 16.9334,-4.92783 33.335,-10.85915 16.4016,-5.93132 24.5273,-9.48911 37.6282,-16.92005 13.1009,-7.43094 26.4948,-16.23405 37.1231,-26.5165 10.6283,-10.28245 21.0561,-18.92269 26.264,-27.77919 5.2078,-8.8565 7.2633,-18.85486 8.3337,-24.74875 1.0704,-5.89388 0.5051,-12.6269 0.5051,-12.6269 0,0 6.3751,-0.66063 13.132,5.05076 6.7568,5.71139 14.9386,19.83849 23.7386,33.84011 8.7999,14.00162 19.5079,36.32805 28.2842,50.50763 8.7763,14.17958 17.7072,25.37008 23.7386,34.85026 6.0314,9.48018 11.2904,16.74394 12.8795,21.71828 1.589,4.97434 1.3821,-0.32646 0.505,6.06091 -0.877,6.38737 -4.7659,18.93143 -11.3642,30.55712 -6.5982,11.62569 -18.6052,26.37505 -29.7995,37.12311 -11.1942,10.74806 -25.3913,19.68569 -36.618,27.02157 -11.2267,7.33589 -20.1467,13.08314 -30.3046,17.42513 -10.1579,4.342 -19.828,6.76961 -30.052,8.83884 -10.224,2.06923 -20.6619,2.65081 -31.0622,3.53553 -10.4003,0.88473 -19.8132,1.63637 -31.3147,1.76777 -11.5016,0.1314 -23.8994,-0.41251 -37.6282,-1.26269 -13.7289,-0.85018 -33.6408,-2.57893 -44.6993,-4.04061 -11.0584,-1.46168 -15.9221,-1.56314 -21.7183,-3.78807 -5.7961,-2.22494 -12.8794,-8.08122 -12.8794,-8.08122 z"
       id="path3878-5"
       inkscape:connector-curvature="0"
       sodipodi:nodetypes="czzzzzzzzzzzzczzzzzczzzzzzzzzzzzzzzzcc" />
    <path
       style="fill:#d5e5ff;stroke:none;display:inline"
       d="m 1349.8957,-503.462 6.8185,8.01809 12.8163,1.89403 18.1782,-0.88568 23.9286,-2.85715 -30.3572,8.57143 -20.3571,8.21429 -1.6071,35.53571 3.7118,36.46362 5.5558,31.31473 15.1523,19.1929 16.1625,13.63706 -47.4772,-8.08123 -9.5965,-60.10407 -0.505,-58.08377 3.8713,-30.94638 z"
       id="path3880-4"
       inkscape:connector-curvature="0" />
    <path
       style="fill:#502d16;display:inline"
       d="m 1427.1016,-333.68092 c -7.425,-0.74273 -20.907,-2.05212 -29.9599,-2.90976 -9.053,-0.85764 -19.628,-2.26908 -23.5,-3.13653 -9.0558,-2.02876 -20.918,-7.46731 -22.8859,-10.49265 -0.8438,-1.29722 -2.4379,-7.53359 -3.5424,-13.85859 -1.1045,-6.325 -2.6713,-15.1 -3.4818,-19.5 -1.3504,-7.3312 -2.1354,-15.0437 -5.7002,-56 -2.2142,-25.43919 1.6298,-61.80367 6.9032,-65.3051 1.1918,-0.79137 2.167,-2.21748 2.167,-3.16915 0,-2.94462 -8.6103,-22.45778 -12.9225,-29.28562 -3.9439,-6.24469 -9.5621,-12.05648 -17.5115,-18.11495 -2.0746,-1.58116 -8.6973,-9.45616 -14.717,-17.5 -15.8331,-21.15704 -28.2354,-47.27289 -37.293,-78.52864 -5.5142,-19.02831 -5.5493,-45.36293 -0.085,-64.09654 3.8288,-13.12737 15.4966,-37.22151 24.5827,-50.76347 l 7.8928,-11.76347 -3.4862,-12.11228 c -4.3534,-15.12503 -11.6089,-48.87547 -14.4807,-67.36078 -1.7854,-11.49166 -2.3228,-20.89794 -2.9997,-52.5 -0.4647,-21.69742 -1.2979,-40.24572 -1.9092,-42.5 -1.7698,-6.5264 -2.9234,-26.8019 -1.8603,-32.695 2.9305,-16.24435 19.4147,-31.78445 38.0434,-35.86465 8.0454,-1.7621 23.4685,0.1206 29.3833,3.5869 10.3576,6.0699 15.2846,16.0632 16.1102,32.67561 0.5666,11.40276 -0.423,18.89966 -3.9134,29.64552 -1.942,5.97895 -1.9952,7.16955 -0.9131,20.45978 1.4272,17.52814 4.4243,41.52473 7.6427,61.19184 3.6558,22.34062 2.5318,20.66775 9.4519,14.06713 11.5064,-10.97524 25.1148,-14.22419 35.0686,-8.37247 5.4998,3.23326 11.0335,9.15434 14.0123,14.99339 l 2.1826,4.27816 1.6107,-2.48114 c 5.7699,-8.88759 17.1652,-12.49616 26.7778,-8.47974 5.7135,2.38727 16.124,10.61059 25.2124,19.91559 4.6087,4.7185 8.5939,8.57908 8.8561,8.57908 0.2622,0 1.3307,-1.08571 2.3745,-2.41268 2.8732,-3.65268 9.7894,-6.59058 15.4557,-6.56536 9.9103,0.0441 17.5476,6.02202 31.2202,24.43677 16.3663,22.0426 22.3629,35.32788 27.778,61.54127 4.3806,21.20503 5.5275,35.42129 6.4543,80 0.4859,23.375 1.1946,46.39599 1.5747,51.15775 l 0.6911,8.65776 4.5948,0.68903 c 2.5272,0.37897 5.7258,1.27733 7.108,1.99637 2.7927,1.45272 11.4345,10.99825 17.7542,19.61082 6.8188,9.2927 25.3406,38.44307 34.24,53.88827 4.5951,7.975 14.1286,23.34297 21.1855,34.15105 7.0569,10.80807 14.7134,23.57479 17.0146,28.37047 4.1384,8.62476 4.1724,8.78606 3.1326,14.85662 -0.5782,3.37545 -2.667,11.31299 -4.6418,17.63897 -3.3528,10.74034 -6.1233,16.16424 -15.4071,30.16378 -3.4011,5.12869 -21.077,22.07251 -31.2648,29.97002 -36.5603,28.34117 -58.7497,39.81644 -88.5402,45.78865 -23.3319,4.67745 -76.0035,6.40452 -105.4598,3.45797 z m 58.6391,-3.4184 c 34.2312,-1.95655 48.5511,-4.07538 65.3609,-9.67109 25.5804,-8.51534 59.5029,-30.81911 85.5861,-56.27231 13.2308,-12.91116 21.756,-25.78194 26.3121,-39.72436 1.585,-4.85016 4.1264,-11.35623 5.6476,-14.45793 l 2.7659,-5.63945 -3.28,-5.857 c -1.804,-3.22134 -6.7116,-10.57939 -10.9058,-16.3512 -11.0641,-15.22558 -14.1155,-20.08952 -27.8819,-44.44335 -18.2685,-32.31821 -37.7512,-62.15126 -48.1183,-73.68148 -3.713,-4.12953 -6.1242,-5.89113 -9.0961,-6.64549 -3.9091,-0.99223 -4.0609,-0.93826 -4.5517,1.61904 -1.5927,8.29849 -3.9047,16.05419 -6.0448,20.27758 -1.3382,2.64078 -2.4331,5.37903 -2.4331,6.085 0,2.67003 -13.3651,18.93779 -23.2333,28.27921 -23.0482,21.81775 -47.4659,37.09555 -72.544,45.38972 -11.8688,3.92542 -53.7843,12.91655 -70.7247,15.17089 -8.8309,1.17519 -33.5928,0.86267 -36.6189,-0.46216 -0.8915,-0.3903 -2.3178,-2.48378 -3.1695,-4.65219 -1.8101,-4.60802 -3.4446,-5.06935 -4.2252,-1.19256 -0.3046,1.5125 -0.9559,4.1 -1.4474,5.75 -0.4915,1.65 -1.1918,17.175 -1.5562,34.5 -0.7306,34.73336 0.3367,51.03165 4.9962,76.29841 1.339,7.26087 2.944,16.57659 3.5666,20.70159 1.2993,8.60763 2.5212,10.9499 7.2314,13.86093 6.2717,3.87617 18.0449,5.8207 52.725,8.70838 10.725,0.89303 23.325,1.96398 28,2.37989 12.8783,1.14572 23.9842,1.15333 43.6391,0.0299 z m -88.1391,-160.61212 c 19.1558,-3.17856 55.9976,-11.45098 66.1961,-14.86358 15.1552,-5.07126 33.3893,-15.25489 50.6501,-28.28778 11.2448,-8.49046 29.3806,-26.06209 35.3792,-34.27867 4.4312,-6.06955 9.1536,-16.84657 10.489,-23.93698 1.3689,-7.26845 1.7596,-26.92769 0.6857,-34.5 -0.546,-3.85 -1.4096,-23.875 -1.9191,-44.5 -1.6463,-66.64217 -7.5314,-100.0413 -20.7921,-118 -2.6398,-3.575 -7.4747,-10.29602 -10.7443,-14.93559 -11.4424,-16.2371 -21.5081,-25.08274 -28.5103,-25.05464 -3.15,0.0126 -12.8121,4.50815 -13.4908,6.27688 -0.2877,0.74976 1.5123,5.15448 4,9.78827 2.4877,4.63379 4.5306,8.98758 4.5398,9.67508 0.036,2.69824 -1.9974,0.99033 -5.3578,-4.5 -2.0405,-3.33381 -9.964,-12.08708 -18.8561,-20.83084 -21.9524,-21.58612 -30.0268,-25.14697 -40.8223,-18.00283 -2.1505,1.4231 -4.1665,3.60954 -4.48,4.85874 -0.3552,1.41515 1.7555,9.04743 5.5996,20.24811 7.4867,21.81404 9.162,31.14033 2.9598,16.47682 -2.21,-5.225 -5.392,-12.31801 -7.071,-15.76224 -1.6791,-3.44423 -3.6576,-7.97629 -4.3968,-10.07125 -3.9488,-11.19222 -14.0088,-23.77954 -22.0573,-27.59883 -7.733,-3.66952 -20.4962,0.006 -29.2549,8.42481 -7.0353,6.76232 -7.287,7.44366 -5.7288,15.50751 1.926,9.96788 7.7491,30.98408 12.4553,44.95316 2.2148,6.57424 4.006,13.54924 3.9804,15.5 l -0.047,3.54684 -2.4571,-4.71957 c -6.1726,-11.85619 -15.1808,-42.21206 -19.8173,-66.78043 -10.6335,-56.34675 -13.5151,-91.66335 -9.2201,-113 1.2236,-6.07835 1.9439,-14.00218 2,-22 0.084,-11.99917 -0.033,-12.7404 -2.9313,-18.50005 -5.1861,-10.307 -14.2224,-14.8719 -29.481,-14.8929 -15.0514,-0.021 -28.0792,6.3712 -37.1987,18.2513 -6.6252,8.63071 -8.2252,14.63632 -7.4863,28.10062 0.3182,5.79757 1.4586,14.81603 2.5342,20.04103 1.5214,7.39043 2.0991,15.57416 2.6014,36.85374 0.7634,32.33377 1.6541,43.56382 5.0952,64.23608 4.4584,26.78317 7.7919,40.52165 16.2351,66.91018 5.2129,16.29248 5.6034,18.19001 5.6592,27.5 0.055,9.23933 -0.156,10.36729 -2.7783,14.82851 -1.561,2.65567 -3.03,4.63666 -3.2645,4.40219 -0.2344,-0.23447 0.5344,-3.5323 1.7085,-7.32851 l 2.1347,-6.90219 -2.7442,-11.26761 c -1.5094,-6.19719 -3.0764,-11.47288 -3.4824,-11.72376 -1.1219,-0.6934 -12.1943,17.52812 -18.9154,31.12863 -10.8254,21.90568 -14.4776,35.02115 -15.5983,56.01578 -0.9397,17.60206 1.9905,30.73612 13.2399,59.34696 9.3297,23.72849 15.5527,34.8803 29.9457,53.6638 8.9022,11.6178 10.928,13.72783 18.4953,19.26456 10.0137,7.32675 19.248,22.05941 24.8029,39.57164 1.7446,5.5 3.588,10.675 4.0964,11.5 0.5084,0.825 1.3574,2.49993 1.8866,3.72207 0.5292,1.22214 2.2157,2.499 3.7476,2.83747 1.532,0.33847 3.2354,0.78802 3.7854,0.999 1.9903,0.7635 25.2118,-0.73329 34,-2.19153 z m -75.7648,-274.6988 c -1.2049,-3.00202 -0.8049,-6.92012 1.1402,-11.16821 1.9209,-4.19505 11.1113,-13.50074 13.3318,-13.49896 0.711,5.6e-4 -1.0712,2.26872 -3.9606,5.04033 -7.1096,6.81985 -8.4116,9.06042 -9.1468,15.73967 -0.4279,3.88797 -0.8648,5.13249 -1.3646,3.88717 z m 200.3991,-13.36904 c -3.6588,-1.29315 -4.502,-1.32219 -5.2083,-0.17941 -0.5794,0.93752 -1.1653,1.04098 -1.8751,0.33115 -1.5414,-1.54145 1.5854,-5.45091 4.3598,-5.45091 2.3685,0 7.5893,4.09462 7.5893,5.95225 0,0.57626 -0.1125,1.01222 -0.25,0.9688 -0.1375,-0.0434 -2.2145,-0.77327 -4.6157,-1.62188 z m -114.1343,-4.657 c 0,-2.93585 9.2349,-3.74272 12.5589,-1.09728 1.7956,1.42908 1.554,1.49791 -3.2217,0.91816 -3.1183,-0.37855 -5.9894,-0.18439 -7.25,0.49029 -1.6634,0.89022 -2.0872,0.82704 -2.0872,-0.31117 z m 71.5219,-0.20103 c -1.3745,-1.03897 -3.3581,-1.33505 -6.5,-0.97027 l -4.5219,0.525 3.5,-1.61365 c 4.9582,-2.28592 7.8125,-2.02425 10.8295,0.99278 2.3895,2.38941 2.4476,2.62215 0.6478,2.5932 -1.0875,-0.0175 -2.8675,-0.70467 -3.9554,-1.52706 z m -172.9584,-98.54392 c 0.3748,-0.60652 2.9889,-2.17713 5.809,-3.49023 6.3407,-2.95234 14.8448,-3.23976 18.794,-0.63518 2.6514,1.74868 2.625,1.75653 -4.6706,1.38812 -5.5948,-0.28253 -8.7817,0.12943 -13.4205,1.73478 -7.0156,2.42791 -7.4325,2.49209 -6.5119,1.00251 z m 1.7643,-64.13653 c -6.2843,-3.40518 -11.1957,-10.88057 -13.9685,-21.26069 -1.9944,-7.46628 -1.5275,-8.88413 0.6575,-1.99637 3.0382,9.57757 8.9941,18.57126 14.1154,21.31498 6.1295,3.28381 13.6662,2.7068 17.9238,-1.37224 5.1914,-4.9737 7.7722,-11.79624 8.5233,-22.53195 0.7662,-10.95267 -0.5644,-15.3435 -5.774,-19.05302 -2.5926,-1.84615 -3.9942,-2.04625 -11.6267,-1.65943 -11.4902,0.58227 -18.3582,3.97456 -23.3386,11.52755 -1.0048,1.52376 -1.8298,2.17863 -1.8334,1.45526 0,-0.72337 2.3597,-3.68154 5.2519,-6.5737 6.3226,-6.3226 12.1734,-8.61113 22.0153,-8.61113 8.5635,0 11.9541,1.8037 14.9974,7.97821 1.8867,3.82779 2.223,6.13346 2.1912,15.02184 -0.034,9.35271 -0.3242,11.04633 -2.6607,15.5 -1.4427,2.75 -4.2415,6.55388 -6.2195,8.45306 -3.2008,3.07319 -4.2832,3.4869 -9.8393,3.76069 -4.9806,0.24543 -7.0865,-0.14947 -10.4151,-1.95306 z"
       id="path3776-1-6"
       inkscape:connector-curvature="0"
       sodipodi:nodetypes="ssssssssssssssscsssssssssssssscsssssssssscsssssssssssscsssscsssssssssssssssssssssccsssssssssccscssssssssssssccsssssssssssssscscssssssssssssssscsssssssscsssssssscssssssssssssssssssscssssssss" />
    <path
       style="opacity:0.71724141;fill:#214478;fill-opacity:1;stroke:none;display:inline;filter:url(#filter4076-9)"
       d="m 961.37812,-472.4858 c -2.9741,0.5184 -5.7062,1.2189 -7.8959,2.0491 -20.2807,7.6909 -36.7913,26.74409 -38.1189,44.00382 -0.4817,6.26146 3.2059,26.89729 5.9579,33.27893 0.9505,2.2042 4.0907,21.12859 7.1993,43.36103 4.5276,32.38106 6.2501,41.95621 9.6123,53.44259 5.4087,18.47671 17.55,51.84518 24.2089,66.58744 l 5.3147,11.82212 -7.3765,13.56373 c -8.5125,15.63412 -18.6575,42.59544 -21.3588,56.81727 -3.855,20.29544 -0.6587,47.40619 7.761,65.945853 13.8294,30.4532 30.7573,54.96477 50.9344,73.7590897 7.67128,7.14558998 15.99658,14.00404 18.49808,15.24147 9.5856,4.7413703 16.566,9.6728103 21.7084,15.3569003 5.6226,6.21491 17.5326,24.67135 17.8842,27.70039 0.1135,0.97896 -0.7891,2.6457 -2.0233,3.68328 -5.461,4.59078 -5.4111,42.69477 0.094,68.448147 8.864,41.46201 10.6458,49.25081 13.0265,56.53896 1.429,4.37414 4.2436,13.10349 6.23,19.40272 1.9864,6.29921 4.4978,12.43439 5.5933,13.61055 2.5552,2.74303 16.4174,6.12253 26.7553,6.51116 4.4202,0.16619 16.3766,-0.37695 26.5716,-1.19249 10.1948,-0.81551 25.3907,-2.00219 33.7569,-2.63063 33.1906,-2.49306 91.7167,-14.12811 117.1693,-23.31524 32.4983,-11.73022 55.8528,-27.71867 93.2277,-63.72876 10.4148,-10.03452 28.116,-30.780777 31.2953,-36.694337 8.6785,-16.14198 11.1195,-22.23305 13.5749,-33.91008 1.4464,-6.8777 2.8103,-15.41703 3.0518,-18.99768 0.4345,-6.43963 0.3836,-6.6195 -5.2596,-14.71545 -3.1381,-4.50162 -13.217,-16.2000503 -22.3746,-25.9945803 -9.1576,-9.7945197 -21.5887,-23.8260697 -27.6636,-31.1679697 -11.7652,-14.21909 -35.9037,-40.7162 -44.615,-48.99657 -8.0735,-7.67436 -18.8444,-15.88827 -22.1312,-16.85889 -1.6268,-0.480503 -5.3156,-0.773143 -8.1782,-0.688963 l -5.2032,0.15416 -1.8037,-8.80755 c -0.9922,-4.82704 -4.517,-28.37591 -7.8494,-52.32997 -6.3556,-45.6831 -9.3475,-60.0891 -16.7629,-81.08054 -9.1665,-25.94945 -17.4402,-38.48019 -38.3175,-58.08549 -17.441,-16.3787 -26.6676,-21.09669 -37.7211,-19.28341 -6.32,1.0366 -13.6596,5.34936 -16.4267,9.64562 -1.0053,1.56081 -2.0682,2.87152 -2.3604,2.9207 -0.2924,0.0491 -5.2152,-3.15413 -10.9165,-7.14362 -11.2429,-7.86738 -23.8364,-14.36327 -30.491,-15.74753 -11.196,-2.32884 -23.4394,3.50362 -28.8107,13.7281 l -1.5168,2.84423 -2.9499,-3.99371 c -4.0179,-5.44779 -10.8773,-10.47778 -17.3947,-12.77248 -11.7953,-4.15279 -26.5714,1.74277 -38.0889,15.19061 -6.9266,8.0876 -5.4958,9.57349 -12.2386,-12.72206 -5.936,-19.62751 -12.1219,-43.74872 -15.8058,-61.5118 -2.793,-13.46831 -2.8808,-14.67882 -1.4297,-21.19341 2.6084,-11.70849 2.8074,-19.61558 0.8142,-31.23915 -2.9038,-16.93381 -9.57268,-26.30511 -21.84428,-30.60661 -5.2559,-1.8424 -16.3896,-1.754 -25.3124,-0.1991 z m -0.079,273.21398 -9.278,21.35599 c 2.6277,-6.82831 6.1054,-14.70848 9.278,-21.35599 z m -17.7166,48.10946 -2.4396,18.7636 c 0.2646,-6.38769 1.0436,-12.41611 2.4396,-18.7636 z"
       id="path3844-7-2-9"
       inkscape:connector-curvature="0"
       transform="matrix(0.36166718,0,0,0.36166718,1260.8617,602.45292)" />
    <path
       style="fill:#fecd81;fill-opacity:1;stroke:none;display:inline"
       d="m 1604.1413,431.85592 -5.1666,3.35833 -4.0688,5.81251 -0.7104,3.29376 0.3875,7.23334 1.1625,7.49168 0.4521,12.20626 0.6458,15.50003 2.9062,15.43544 4.1334,14.7896 -1.0979,2.32501 -9.1709,16.7271 -3.4229,14.78961 0.2583,6.32917 3.2292,11.88335 4.7792,11.43127 2.5833,5.03751 6.2646,8.97709 5.2313,4.90834 4.3916,4.52084 3.8105,8.00835 1.9375,5.29584 2.2604,3.16459 28.3521,20.98961 47.2751,-39.26672 0.9042,-24.08962 -1.55,-0.12917 -0.775,-11.17293 -1.2271,-28.80421 -2.1958,-15.11252 -2.9709,-9.55835 -6.5229,-9.17084 -8.0084,-7.62085 -2.5188,0.0646 -3.552,1.22709 -2.4542,2.06667 -7.2979,-6.52293 -6.3938,-4.39167 -4.65,0.45208 -3.8104,4.19793 -1.6146,-2.38959 -4.0042,-4.19792 -3.5521,-1.87292 -2.9062,0.12916 -4.65,2.19584 -4.9729,4.26251 -1.0334,-6.84585 -2.0021,-12.27085 -1.1625,-14.0146 0.7104,-5.61876 1.1625,-8.13751 -0.452,-6.32918 -1.6146,-3.61666 -3.6167,-2.97084 -8.7833,-1.2271 z"
       id="path3844-7-8"
       inkscape:connector-curvature="0" />
    <path
       style="fill:#d07f33;fill-opacity:1;stroke:none;display:inline"
       d="m 1604.4193,432.10399 6.2107,-1.73535 6.4848,1.09599 3.3794,2.19203 2.5574,3.92742 0.6393,6.57609 -1.37,9.49882 -0.548,3.56206 1.644,18.54095 1.918,13.33488 1.1855,2.19898 3.2254,-2.59015 -0.5913,5.39832 0.4654,3.27275 5.2444,14.46134 2.545,2.47064 4.2187,-0.1998 -1.0158,1.81306 -3.4149,2.36431 -3.8856,0.12835 -2.2522,6.94894 -1.8584,1.6912 -2.0395,0.21998 0.3007,-4.85793 -0.4833,-5.09756 -0.9833,-4.6712 -3.6748,-1.99624 -4.0187,0.18268 1.918,-2.83138 3.8361,-2.46604 0.091,-5.11475 -4.0644,-16.16625 -0.3817,-4.05834 -1.6734,-2.92877 -2.2833,-0.77634 -4.6707,-0.10284 -4.2801,1.19885 1.9637,-2.96838 1.9395,-1.33077 2.9498,-0.18871 3.2506,-0.16957 -0.2395,-4.56737 0.3654,-4.74941 0.1826,-6.11943 -0.822,-3.01405 -2.466,2.00937 -4.2928,-0.0913 -2.8313,-1.91803 3.7447,0.82201 3.5621,-1.55269 3.1053,-5.11475 -0.091,-5.84542 -0.7306,-4.84074 -1.1874,-2.28337 -4.8408,-2.3747 -5.0234,0.27399 -6.8501,2.46603 z"
       id="path3846-0-1"
       inkscape:connector-curvature="0"
       sodipodi:nodetypes="cccccccccccccccccccccccccccccccccccccccccccccccccccccccccc" />
    <path
       style="fill:#ffccaa;fill-opacity:1;stroke:none;display:inline"
       d="m 1601.784,442.28614 1.4855,-1.84063 2.9708,-2.19584 3.3906,-0.87189 4.1333,0.0969 1.55,0.775 1.1948,1.38855 0.7428,2.325 c 0,0 -0.1292,6.42605 -0.1938,6.58751 -0.065,0.16146 -1.3562,3.32605 -1.3562,3.32605 l -2.0344,2.35729 -2.8417,0.87188 -2.4219,-0.45208 -2.002,-1.03334 -2.5834,-2.93855 -2.0344,-5.19896 -0.226,-3.1323 z"
       id="path3848-5-1"
       inkscape:connector-curvature="0" />
    <path
       style="fill:#d07f33;fill-opacity:1;stroke:none;display:inline"
       d="m 1635.2059,485.71849 3.4772,1.26539 2.2062,2.99712 1.6792,8.91251 3.8104,10.1396 -1.8084,2.06667 -1.2271,2.38959 1.0334,-0.32292 5.2958,-0.45209 3.1646,0.38751 3.4229,2.64792 -0.7104,-5.03751 -1.8083,-7.62084 -3.6813,-9.42919 0.1938,-1.80833 3.0354,-2.77709 -4.8437,2.71251 -1.55,0.90416 -4.3271,-5.36042 -2.8421,-2.1358 -3.7455,-0.12462 z"
       id="path3850-0-1"
       inkscape:connector-curvature="0"
       sodipodi:nodetypes="cccccccccccccccccccccc" />
    <path
       style="fill:#d07f33;fill-opacity:1;stroke:none;display:inline"
       d="m 1665.5222,513.16358 2.5574,-0.63934 2.6063,-0.58584 -0.3953,-2.54819 -3.307,-5.31444 -8.6768,-10.09248 -3.6077,-3.24239 -3.2424,-0.68501 0.274,-0.91335 3.836,-0.274 4.6125,2.46604 6.2564,5.02341 3.3337,3.28805 0.9134,-0.82201 3.425,-1.91803 1.5984,-0.22834 -2.4204,2.42037 0.8677,4.2014 1.8267,4.2014 1.1873,4.56483 0.318,2.02671 -0.4617,0.82542 -1.0897,-0.41038 -1.05,0.34587 -1.644,0.50234 -2.1463,-0.50234 -1.2787,-1.50703 -1.644,-0.63934 z"
       id="path3852-7-8"
       inkscape:connector-curvature="0"
       sodipodi:nodetypes="ccccccccccccccccccccccccccccc" />
    <path
       style="fill:#d07f33;fill-opacity:1;stroke:none;display:inline"
       d="m 1675.1831,496.56851 2.0666,1.22708 2.5834,2.97084 2.325,5.23126 0.3875,3.74584 1.6792,2.7125 -1.6146,0.51667 -1.1625,2.06667 1.9375,-0.51667 2.5833,1.03334 2.3342,-0.35031 1.4619,1.06397 -0.098,1.96626 1.7945,7.30348 1.5526,15.70958 -0.1826,17.53628 -2.2834,15.89224 -4.9321,13.70022 -8.7681,11.87351 -12.9695,9.49882 -12.2389,4.56674 -14.0321,3.98886 -12.6377,1.85656 12.5864,0.38513 17.3714,-3.67318 10.0469,-2.55737 c 0,0 17.3536,-10.2295 18.0843,-10.59483 0.7306,-0.36534 9.8641,-9.49882 9.8641,-9.49882 l 5.8454,-8.58547 1.2787,-8.03746 -1.2787,-26.12174 -1.644,-24.11237 -3.836,-12.78687 -4.7494,-7.12411 -8.9509,-10.22949 z"
       id="path3854-8-6"
       inkscape:connector-curvature="0"
       sodipodi:nodetypes="ccccccccccccccccccccccccccsccccccccc" />
    <path
       style="fill:#d07f33;fill-opacity:1;stroke:none;display:inline"
       d="m 1605.424,590.93513 8.7681,5.66276 3.0223,0.5382 2.8231,0.37514 0.822,2.46604 0,4.38407 4.1512,14.08507 2.5887,1.70346 -4.1825,-1.2663 -7.7634,-17.17094 -5.6628,-4.2014 -4.2014,-5.29742 z"
       id="path3856-0-6"
       inkscape:connector-curvature="0"
       sodipodi:nodetypes="ccccccccccccc" />
    <path
       style="fill:#ffe6d5;stroke:none;display:inline"
       d="m 1609.6955,438.21738 -3.6812,0.87188 -2.4865,1.32396 -1.6146,1.64688 -0.3552,1.1625 0.3552,2.48646 1.55,4.26251 2.099,3.06771 2.6156,1.61459 4.1656,-0.0646 2.2927,-1.38855 -1.7437,-14.95106 -0.5813,0.0323 1.2271,13.59482 -0.8719,0.58125 -1.227,-12.46461 -0.3876,0.29063 0.6459,12.01252 -1.55,-5.03751 -0.6459,-7.23334 z"
       id="path3858-6-7"
       inkscape:connector-curvature="0" />
    <path
       style="fill:#ffd99f;fill-opacity:1;stroke:none;display:inline"
       d="m 1598.0259,439.68477 -1.1192,5.09212 -0.4335,2.76267 1.2787,5.29742 2.2833,10.86883 -0.3653,11.41685 -0.6394,4.7494 0.9134,5.75409 2.0093,14.43089 3.3794,13.24354 3.1968,13.42621 1.918,2.55738 -1.0047,-6.66744 1.9181,-6.21076 2.6487,-4.47541 -1.6441,1.00469 -2.466,3.28805 -1.1874,-1.64403 -3.836,-13.51754 -2.0094,-15.16157 1.8267,-6.11943 0.6393,-1.91803 -1.2786,-1.64403 -1.6441,-3.10538 -0.6393,-9.59015 -2.1007,-11.0515 -1.1536,-4.93684 0.058,-2.82662 0.822,-5.02341 1.37,-2.64869 -1.096,0.36532 z"
       id="path3870-9-4"
       inkscape:connector-curvature="0"
       sodipodi:nodetypes="cccccccccccccccccccccccccccccccc" />
    <path
       style="fill:#ffd99f;fill-opacity:1;stroke:none;display:inline"
       d="m 1633.2811,487.90952 -2.1921,1.18736 -0.822,2.74004 0.9134,4.65807 6.5761,15.43557 1.7353,1.37002 0.7307,-0.91334 -1.7353,-0.91335 -6.2108,-16.34892 0,-4.29274 z"
       id="path3872-6-3"
       inkscape:connector-curvature="0" />
    <path
       style="fill:#ffd99f;fill-opacity:1;stroke:none;display:inline"
       d="m 1607.1593,532.38955 -3.288,5.38875 -2.0094,8.22013 2.8314,14.06555 4.3841,8.6768 8.5854,14.15689 2.4661,8.6768 -1.7354,-11.59951 -7.0327,-18.17562 -5.5715,-12.23886 0.822,-7.76345 z"
       id="path3874-4-4"
       inkscape:connector-curvature="0" />
    <path
       style="fill:#aaccff;stroke:none;display:inline"
       d="m 1621.9556,616.7372 2.1007,3.15105 3.699,0.54801 c 0,0 11.6909,-0.54801 11.9649,-0.50234 0.274,0.0457 22.6967,-4.88641 22.6967,-4.88641 l 9.4074,-4.11007 9.0878,-5.93676 9.6359,-8.31146 6.0281,-7.26111 3.288,-9.63582 0.3197,-1.78103 1.5984,-0.0913 3.8817,1.6897 8.0831,11.27984 5.7998,8.22013 18.8635,31.46953 0.3229,1.48542 -1.6145,4.65001 -4.6501,10.78542 -5.0375,5.8771 -8.7833,7.87918 -9.5584,6.65209 -10.85,5.94167 -9.2355,2.64792 -9.1708,1.09792 -13.4979,0.71042 -16.0167,-0.25833 -14.4667,-1.61459 -9.6875,-1.87292 -3.2292,-2.77709 -1.55,-10.72085 -2.325,-19.31044 -0.1292,-16.01669 2.0667,-7.55626 z"
       id="path3876-1-8"
       inkscape:connector-curvature="0" />
    <path
       style="fill:#5488d6;fill-opacity:1;stroke:none;display:inline"
       d="m 1623.6909,670.94437 c 0,0 16.7995,3.72642 26.3044,4.01873 9.5049,0.29232 21.6266,-0.66174 30.3232,-2.74004 8.6965,-2.0783 15.742,-5.046 21.555,-8.58546 5.813,-3.53947 10.2601,-7.2406 13.3165,-11.55789 3.0565,-4.31728 4.6243,-7.7091 5.181,-13.11942 0.5568,-5.41031 -1.434,-12.28691 -3.1532,-18.25764 -1.7193,-5.97072 -4.862,-13.00158 -7.1241,-17.34599 -2.2622,-4.34442 -3.1383,-8.39688 -5.7439,-8.95238 -2.6055,-0.55551 -2.2533,1.2291 -4.4727,2.93189 -2.2193,1.70278 -4.895,5.04383 -8.532,7.61481 -3.637,2.57098 -8.4313,4.92209 -13.4013,7.35648 -4.97,2.43439 -10.3307,5.21308 -16.4403,7.12411 -6.1096,1.91104 -11.7822,1.5527 -11.7822,1.5527 0,0 6.1243,-1.78224 12.0562,-3.9274 5.9319,-2.14517 8.8707,-3.4319 13.6089,-6.11943 4.7382,-2.68753 9.5823,-5.87132 13.4262,-9.59015 3.8439,-3.71882 7.6153,-6.84371 9.4989,-10.04682 1.8835,-3.2031 2.6269,-6.81918 3.014,-8.95081 0.3871,-2.13162 0.1827,-4.56673 0.1827,-4.56673 0,0 2.3056,-0.23893 4.7494,1.82669 2.4437,2.06562 5.4028,7.17493 8.5855,12.23886 3.1826,5.06392 7.0553,13.13866 10.2294,18.26695 3.1741,5.12829 6.4041,9.17552 8.5855,12.60419 2.1814,3.42867 4.0834,6.05574 4.6581,7.85479 0.5747,1.79906 0.4999,-0.11807 0.1826,2.19204 -0.3171,2.3101 -1.7236,6.84687 -4.11,11.0515 -2.3864,4.20463 -6.7289,9.53899 -10.7775,13.42621 -4.0486,3.88722 -9.1832,7.11967 -13.2435,9.77282 -4.0604,2.65315 -7.2864,4.73174 -10.9602,6.3021 -3.6738,1.57035 -7.1712,2.44834 -10.8689,3.19671 -3.6977,0.74838 -7.4727,0.95871 -11.2342,1.27869 -3.7614,0.31998 -7.1658,0.59182 -11.3255,0.63934 -4.1597,0.0475 -8.6436,-0.14919 -13.6089,-0.45667 -4.9653,-0.30748 -12.1667,-0.93271 -16.1662,-1.46136 -3.9995,-0.52864 -5.7585,-0.56533 -7.8548,-1.37002 -2.0963,-0.80468 -4.6581,-2.92271 -4.6581,-2.92271 z"
       id="path3878-5-5"
       inkscape:connector-curvature="0"
       sodipodi:nodetypes="czzzzzzzzzzzzczzzzzczzzzzzzzzzzzzzzzcc" />
    <path
       style="fill:#d5e5ff;stroke:none;display:inline"
       d="m 1622.0469,617.23954 2.466,2.89988 4.6353,0.68501 6.5744,-0.32032 8.6542,-1.03334 -10.9792,3.1 -7.3625,2.97084 -0.5812,12.8521 1.3424,13.1877 2.0094,11.32551 5.48,6.94144 5.8455,4.93208 -17.171,-2.92272 -3.4707,-21.73767 -0.1826,-21.00699 1.4001,-11.19229 z"
       id="path3880-4-9"
       inkscape:connector-curvature="0" />
    <path
       style="fill:#502d16;display:inline"
       d="m 1649.9697,678.64378 c -2.6853,-0.26862 -7.5613,-0.74218 -10.8355,-1.05236 -3.2742,-0.31018 -7.0988,-0.82065 -8.4992,-1.13438 -3.2751,-0.73374 -7.5653,-2.70068 -8.277,-3.79485 -0.3052,-0.46916 -0.8817,-2.72465 -1.2812,-5.0122 -0.3995,-2.28754 -0.9661,-5.46117 -1.2593,-7.05251 -0.4884,-2.65145 -0.7723,-5.44081 -2.0615,-20.25336 -0.8008,-9.20052 0.5894,-22.35236 2.4966,-23.61871 0.4311,-0.28621 0.7838,-0.80199 0.7838,-1.14618 0,-1.06497 -3.1141,-8.12224 -4.6737,-10.59165 -1.4264,-2.25849 -3.4583,-4.36043 -6.3333,-6.55158 -0.7503,-0.57185 -3.1455,-3.41998 -5.3227,-6.32917 -5.7263,-7.65181 -10.2118,-17.09706 -13.4876,-28.40124 -1.9943,-6.88191 -2.007,-16.40628 -0.031,-23.18161 1.3847,-4.74774 5.6046,-13.4618 8.8907,-18.35948 l 2.8546,-4.25446 -1.2609,-4.38062 c -1.5744,-5.47023 -4.1985,-17.67665 -5.2371,-24.36218 -0.6458,-4.15616 -0.8401,-7.5581 -1.0849,-18.98753 -0.1681,-7.84724 -0.4694,-14.55556 -0.6905,-15.37085 -0.6401,-2.36039 -1.0573,-9.69337 -0.6728,-11.82471 1.0598,-5.87505 7.0216,-11.4954 13.759,-12.97107 2.9098,-0.63729 8.4878,0.0436 10.627,1.29726 3.746,2.19529 5.5279,5.80954 5.8265,11.8177 0.2049,4.124 -0.153,6.83539 -1.4153,10.72181 -0.7024,2.16239 -0.7216,2.59299 -0.3303,7.39963 0.5162,6.33936 1.6001,15.01813 2.7641,22.13108 1.3222,8.07987 0.9157,7.47485 3.4185,5.08762 4.1615,-3.96938 9.0832,-5.14442 12.6831,-3.02805 1.9891,1.16937 3.9905,3.31083 5.0678,5.42262 l 0.7894,1.54727 0.5825,-0.89734 c 2.0868,-3.21435 6.2081,-4.51946 9.6847,-3.06685 2.0664,0.8634 5.8315,3.8375 9.1185,7.20282 1.6668,1.70652 3.1081,3.10277 3.2029,3.10277 0.095,0 0.4813,-0.39267 0.8588,-0.87259 1.0392,-1.32105 3.5405,-2.3836 5.5898,-2.37447 3.5843,0.0159 6.3464,2.17796 11.2914,8.83797 5.9191,7.97209 8.0879,12.77694 10.0464,22.25746 1.5843,7.66916 1.9991,12.81072 2.3343,28.93338 0.1757,8.45397 0.432,16.7799 0.5695,18.50208 l 0.2499,3.13122 1.6618,0.2492 c 0.914,0.13707 2.0709,0.46197 2.5708,0.72203 1.01,0.5254 4.1354,3.9777 6.4211,7.09259 2.4661,3.36086 9.1648,13.90359 12.3835,19.48961 1.6618,2.8843 5.1098,8.44239 7.6621,12.35132 2.5522,3.90892 5.3213,8.52623 6.1536,10.26067 1.4967,3.11929 1.509,3.17763 1.1329,5.37315 -0.2091,1.22079 -0.9645,4.09154 -1.6788,6.37943 -1.2126,3.88443 -2.2146,5.84608 -5.5722,10.90925 -1.2301,1.85488 -7.6229,7.98291 -11.3074,10.83918 -13.2227,10.25007 -21.2479,14.4003 -32.0221,16.56025 -8.4384,1.69168 -27.488,2.3163 -38.1414,1.25063 z m 21.2079,-1.23632 c 12.3803,-0.70762 17.5593,-1.47393 23.6389,-3.49772 9.2516,-3.07972 21.5203,-11.14626 30.9537,-20.35184 4.7851,-4.66955 7.8684,-9.32449 9.5162,-14.367 0.5733,-1.75414 1.4924,-4.10718 2.0426,-5.22896 l 1.0003,-2.0396 -1.1863,-2.11829 c -0.6524,-1.16505 -2.4273,-3.82622 -3.9442,-5.91369 -4.0016,-5.50659 -5.1052,-7.26572 -10.084,-16.0737 -6.6071,-11.68844 -13.6534,-22.47807 -17.4028,-26.64818 -1.3429,-1.49351 -2.2149,-2.13062 -3.2898,-2.40345 -1.4138,-0.35886 -1.4687,-0.33934 -1.6462,0.58555 -0.576,3.00129 -1.4122,5.80628 -2.1862,7.33374 -0.484,0.95508 -0.88,1.94542 -0.88,2.20074 0,0.96566 -4.8337,6.84918 -8.4027,10.22766 -8.3358,7.89077 -17.1669,13.41625 -26.2368,16.41598 -4.2926,1.41969 -19.452,4.67149 -25.5788,5.48681 -3.1939,0.42503 -12.1494,0.312 -13.2439,-0.16715 -0.3224,-0.14116 -0.8382,-0.8983 -1.1463,-1.68254 -0.6546,-1.66657 -1.2458,-1.83342 -1.5281,-0.43131 -0.1101,0.54702 -0.3457,1.48283 -0.5235,2.07958 -0.1777,0.59675 -0.431,6.21164 -0.5628,12.47752 -0.2642,12.56192 0.1218,18.45647 1.807,27.59463 0.4842,2.62602 1.0647,5.99521 1.2899,7.48709 0.4699,3.11309 0.9118,3.96022 2.6154,5.01304 2.2682,1.40188 6.5262,2.10516 19.0689,3.14954 3.8788,0.32298 8.4358,0.7103 10.1266,0.86072 4.6577,0.41437 8.6743,0.41713 15.7829,0.0108 z m -31.8771,-58.08813 c 6.9281,-1.14958 20.2525,-4.14145 23.941,-5.37567 5.4811,-1.83411 12.0758,-5.5172 18.3185,-10.23076 4.0669,-3.07072 10.626,-9.42581 12.7955,-12.39747 1.6026,-2.19516 3.3106,-6.09286 3.7936,-8.65722 0.495,-2.62876 0.6363,-9.73887 0.2479,-12.47752 -0.1974,-1.39242 -0.5098,-8.63481 -0.694,-16.09419 -0.5954,-24.10229 -2.7239,-36.18166 -7.5199,-42.67673 -0.9547,-1.29296 -2.7033,-3.72373 -3.8859,-5.40171 -4.1383,-5.87243 -7.7787,-9.07161 -10.3112,-9.06144 -1.1392,0.005 -4.6337,1.63045 -4.8792,2.27014 -0.104,0.27116 0.547,1.8642 1.4467,3.54009 0.8997,1.67589 1.6386,3.25052 1.6419,3.49916 0.013,0.97587 -0.7224,0.35817 -1.9378,-1.6275 -0.7379,-1.20573 -3.6036,-4.3715 -6.8196,-7.53383 -7.9394,-7.80699 -10.8597,-9.09483 -14.7641,-6.51103 -0.7777,0.51468 -1.5069,1.30545 -1.6202,1.75724 -0.1285,0.51182 0.6349,3.27216 2.0252,7.32308 2.7076,7.88942 3.3135,11.26244 1.0704,5.95912 -0.7993,-1.88971 -1.9501,-4.45502 -2.5573,-5.70068 -0.6073,-1.24566 -1.3229,-2.88476 -1.5902,-3.64244 -1.4282,-4.04786 -5.0665,-8.60028 -7.9774,-9.98159 -2.7968,-1.32715 -7.4128,0.002 -10.5805,3.04698 -2.5445,2.4457 -2.6355,2.69212 -2.072,5.60855 0.6966,3.60506 2.8026,11.20593 4.5047,16.25809 0.801,2.37768 1.4488,4.90031 1.4396,5.60584 l -0.017,1.28277 -0.8887,-1.70691 c -2.2324,-4.288 -5.4904,-15.26672 -7.1672,-24.15229 -3.8458,-20.37877 -4.888,-33.15163 -3.3346,-40.86839 0.4425,-2.19834 0.703,-5.06413 0.7233,-7.95668 0.03,-4.33971 -0.012,-4.60778 -1.0602,-6.69086 -1.8756,-3.72771 -5.1437,-5.37868 -10.6623,-5.38627 -5.4436,-0.008 -10.1553,2.30425 -13.4535,6.60089 -2.3961,3.12145 -2.9748,5.29348 -2.7076,10.16307 0.1151,2.09679 0.5276,5.35848 0.9166,7.24819 0.5502,2.67287 0.7592,5.63266 0.9408,13.32878 0.2761,11.69407 0.5982,15.75561 1.8428,23.23209 1.6124,9.68659 2.8181,14.65535 5.8717,24.19921 1.8853,5.89246 2.0266,6.57873 2.0467,9.94585 0.02,3.34156 -0.056,3.74951 -1.0048,5.36299 -0.5646,0.96046 -1.0958,1.67692 -1.1807,1.59212 -0.085,-0.0848 0.1933,-1.27751 0.618,-2.65048 l 0.772,-2.49629 -0.9925,-4.07513 c -0.5459,-2.24132 -1.1126,-4.14936 -1.2594,-4.2401 -0.4058,-0.25078 -4.4103,6.33935 -6.8411,11.25821 -3.9152,7.92256 -5.2361,12.666 -5.6414,20.25907 -0.3399,6.36608 0.7199,11.11624 4.7884,21.46385 3.3743,8.58181 5.6249,12.61505 10.8304,19.40843 3.2196,4.20178 3.9523,4.96491 6.6891,6.96736 3.6217,2.64984 6.9614,7.97816 8.9704,14.31176 0.631,1.98917 1.2977,3.8608 1.4816,4.15918 0.1838,0.29837 0.4909,0.90414 0.6823,1.34615 0.1914,0.442 0.8013,0.9038 1.3554,1.02622 0.554,0.12241 1.1701,0.285 1.369,0.3613 0.7198,0.27613 9.1183,-0.26521 12.2967,-0.7926 z m -27.4016,-99.34955 c -0.4358,-1.08573 -0.2911,-2.50278 0.4124,-4.03917 0.6947,-1.51721 4.0186,-4.88278 4.8217,-4.88213 0.2571,2e-4 -0.3875,0.82052 -1.4325,1.82292 -2.5713,2.46652 -3.0422,3.27686 -3.3081,5.69252 -0.1547,1.40615 -0.3127,1.85626 -0.4935,1.40586 z m 72.4778,-4.83514 c -1.3233,-0.46769 -1.6282,-0.47819 -1.8837,-0.0649 -0.2095,0.33907 -0.4214,0.37649 -0.6782,0.11977 -0.5574,-0.55749 0.5734,-1.97142 1.5768,-1.97142 0.8567,0 2.7448,1.48089 2.7448,2.15274 0,0.20841 -0.041,0.36608 -0.09,0.35038 -0.05,-0.0157 -0.8009,-0.27967 -1.6693,-0.58658 z m -41.2786,-1.68428 c 0,-1.0618 3.3399,-1.35362 4.5421,-0.39685 0.6494,0.51685 0.562,0.54174 -1.1652,0.33207 -1.1278,-0.13691 -2.1662,-0.0667 -2.6221,0.17732 -0.6016,0.32196 -0.7548,0.29911 -0.7548,-0.11254 z m 25.8671,-0.0727 c -0.4971,-0.37576 -1.2145,-0.48285 -2.3509,-0.35092 l -1.6354,0.18988 1.2659,-0.58361 c 1.7932,-0.82674 2.8255,-0.7321 3.9166,0.35906 0.8642,0.86417 0.8852,0.94835 0.2343,0.93788 -0.3933,-0.006 -1.0371,-0.25486 -1.4305,-0.55229 z m -62.5534,-35.6401 c 0.1356,-0.21936 1.081,-0.7874 2.1009,-1.2623 2.2933,-1.06777 5.3689,-1.17172 6.7972,-0.22973 0.9589,0.63244 0.9494,0.63528 -1.6892,0.50204 -2.0235,-0.10218 -3.1761,0.0468 -4.8538,0.62741 -2.5373,0.8781 -2.688,0.90131 -2.3551,0.36258 z m 0.6381,-23.19608 c -2.2728,-1.23154 -4.0491,-3.93514 -5.052,-7.68929 -0.7213,-2.70031 -0.5524,-3.2131 0.2378,-0.72202 1.0989,3.46389 3.2529,6.71661 5.1051,7.70893 2.2169,1.18764 4.9426,0.97896 6.4825,-0.4963 1.8775,-1.79882 2.8109,-4.26631 3.0826,-8.14907 0.2771,-3.96122 -0.2042,-5.54924 -2.0883,-6.89085 -0.9377,-0.66769 -1.4446,-0.74006 -4.205,-0.60016 -4.1556,0.21059 -6.6396,1.43747 -8.4408,4.16914 -0.3634,0.55109 -0.6618,0.78794 -0.6631,0.52632 0,-0.26162 0.8534,-1.3315 1.8995,-2.37749 2.2866,-2.28668 4.4027,-3.11437 7.9622,-3.11437 3.0971,0 4.3234,0.65234 5.424,2.88546 0.6824,1.38439 0.804,2.21827 0.7925,5.43291 -0.012,3.38256 -0.1172,3.99509 -0.9623,5.60584 -0.5217,0.99458 -1.534,2.37032 -2.2494,3.05719 -1.1576,1.11147 -1.549,1.2611 -3.5585,1.36012 -1.8013,0.0888 -2.563,-0.0541 -3.7668,-0.70636 z"
       id="path3776-1-6-1"
       inkscape:connector-curvature="0"
       sodipodi:nodetypes="ssssssssssssssscsssssssssssssscsssssssssscsssssssssssscsssscsssssssssssssssssssssccsssssssssccscssssssssssssccsssssssssssssscscssssssssssssssscsssssssscsssssssscssssssssssssssssssscssssssss" />
  </g>
</svg>
